<svg width="54" height="53" viewBox="0 0 54 53" fill="none" xmlns="http://www.w3.org/2000/svg">
<g clip-path="url(#clip0_1_346)">
<g clip-path="url(#clip1_1_346)">
<g clip-path="url(#clip2_1_346)">
<path d="M50.9089 41.8101H2.40891C1.16091 41.8101 0.158905 40.7481 0.158905 39.4441V3.17606C0.158905 1.87206 1.16191 0.810059 2.40891 0.810059H50.9089C52.1569 0.810059 53.1589 1.87206 53.1589 3.17606V39.4441C53.1589 40.7481 52.1559 41.8101 50.9089 41.8101ZM2.40891 2.34006C2.00391 2.34006 1.6959 2.71006 1.6959 3.17606V39.4441C1.6959 39.9101 2.01991 40.2811 2.40791 40.2811H50.9099C51.3139 40.2811 51.6219 39.9111 51.6219 39.4441V3.17606C51.6219 2.70906 51.2979 2.33906 50.9099 2.33906H2.4069L2.40891 2.34006ZM49.4209 38.6071H3.8969C3.79728 38.6073 3.69858 38.5879 3.60645 38.55C3.51432 38.5121 3.43056 38.4564 3.35998 38.3861C3.28939 38.3158 3.23336 38.2323 3.19508 38.1403C3.15681 38.0483 3.13704 37.9497 3.1369 37.8501V4.78606C3.1369 4.36806 3.4769 4.02906 3.8969 4.02906H49.4209C49.8409 4.02906 50.1809 4.36806 50.1809 4.78606V37.8661C50.1809 38.2851 49.8409 38.6231 49.4209 38.6231V38.6071ZM4.65791 37.0771H48.6439V5.54306H4.65791V37.0931V37.0771Z" fill="#4EBFE9"/>
<path d="M37.4299 52.8101H15.9039C15.4919 52.8101 15.1589 52.4611 15.1589 52.0301V48.8421C15.1589 48.4101 15.4919 48.0621 15.9039 48.0621C18.1839 48.0621 20.0379 46.1191 20.0379 43.7281V40.5901C20.0379 40.1591 20.3699 39.8101 20.7819 39.8101H32.0759C32.4879 39.8101 32.8209 40.1591 32.8209 40.5901V43.2471C32.8209 45.9031 34.8809 48.0621 37.4139 48.0621C37.8259 48.0621 38.1589 48.4101 38.1589 48.8421V52.0301C38.1589 52.2451 38.0789 52.4451 37.9369 52.5781C37.793 52.7201 37.601 52.8029 37.3989 52.8101H37.4299ZM16.6489 51.2331H36.6869V49.5731C33.6769 49.1911 31.3329 46.4841 31.3329 43.2301V41.3701H21.5279V43.7121C21.5279 46.7001 19.3889 49.1911 16.6329 49.5721V51.2321L16.6489 51.2331Z" fill="#4EBFE9"/>
<mask id="mask0_1_346" style="mask-type:luminance" maskUnits="userSpaceOnUse" x="20" y="14" width="13" height="13">
<path d="M20.1589 14.8101H32.1589V26.8101H20.1589V14.8101Z" fill="white"/>
</mask>
<g mask="url(#mask0_1_346)">
<path d="M27.7229 16.733C27.818 16.7593 27.9069 16.8042 27.9845 16.865C28.0621 16.9258 28.127 17.0014 28.1753 17.0873C28.2237 17.1733 28.2545 17.268 28.2661 17.3659C28.2777 17.4639 28.2698 17.5631 28.2429 17.658L26.0269 25.551C25.9692 25.7377 25.8409 25.8945 25.6693 25.988C25.4978 26.0815 25.2965 26.1044 25.1083 26.0517C24.9201 25.9991 24.7599 25.8751 24.6618 25.7061C24.5637 25.5371 24.5354 25.3365 24.5829 25.147L26.7979 17.252C26.8243 17.157 26.8693 17.0682 26.9301 16.9906C26.9909 16.9131 27.0665 16.8483 27.1524 16.8C27.2384 16.7516 27.333 16.7208 27.4309 16.7091C27.5288 16.6975 27.628 16.7052 27.7229 16.732V16.733ZM24.1929 18.751C24.3334 18.8916 24.4122 19.0823 24.4122 19.281C24.4122 19.4798 24.3334 19.6704 24.1929 19.811L22.6029 21.402L24.1929 22.993C24.3254 23.1352 24.3975 23.3232 24.3941 23.5175C24.3907 23.7118 24.3119 23.8972 24.1745 24.0346C24.0371 24.172 23.8517 24.2508 23.6574 24.2542C23.4631 24.2576 23.2751 24.1855 23.1329 24.053L21.0109 21.932C20.8705 21.7914 20.7916 21.6008 20.7916 21.402C20.7916 21.2033 20.8705 21.0126 21.0109 20.872L23.1319 18.75C23.2015 18.6803 23.2841 18.6251 23.375 18.5874C23.466 18.5497 23.5635 18.5303 23.6619 18.5303C23.7604 18.5303 23.8578 18.5497 23.9488 18.5874C24.0397 18.6251 24.1223 18.6803 24.1919 18.75L24.1929 18.751ZM28.6329 19.811C28.5592 19.7424 28.5001 19.6596 28.4591 19.5676C28.4181 19.4756 28.3961 19.3762 28.3943 19.2755C28.3925 19.1748 28.4111 19.0748 28.4488 18.9814C28.4865 18.888 28.5426 18.8032 28.6139 18.732C28.6851 18.6608 28.7699 18.6046 28.8633 18.5669C28.9567 18.5292 29.0567 18.5106 29.1574 18.5124C29.2581 18.5142 29.3574 18.5362 29.4494 18.5772C29.5414 18.6182 29.6242 18.6773 29.6929 18.751L31.8139 20.871C31.8836 20.9407 31.9389 21.0234 31.9766 21.1144C32.0143 21.2054 32.0337 21.303 32.0337 21.4015C32.0337 21.5 32.0143 21.5976 31.9766 21.6886C31.9389 21.7797 31.8836 21.8624 31.8139 21.932L29.6939 24.054C29.6242 24.1237 29.5415 24.1791 29.4505 24.2168C29.3594 24.2546 29.2618 24.2741 29.1633 24.2741C29.0647 24.2742 28.9671 24.2548 28.876 24.2171C28.7849 24.1794 28.7021 24.1242 28.6324 24.0545C28.5627 23.9848 28.5073 23.9021 28.4696 23.8111C28.4318 23.72 28.4124 23.6224 28.4123 23.5239C28.4123 23.4253 28.4316 23.3277 28.4693 23.2366C28.507 23.1455 28.5622 23.0627 28.6319 22.993L30.2229 21.402L28.6329 19.811Z" fill="#4EBFE9"/>
</g>
</g>
</g>
</g>
<defs>
<clipPath id="clip0_1_346">
<rect width="53" height="52" fill="white" transform="translate(0.158905 0.810059)"/>
</clipPath>
<clipPath id="clip1_1_346">
<rect width="53" height="52" fill="white" transform="translate(0.158905 0.810059)"/>
</clipPath>
<clipPath id="clip2_1_346">
<rect width="53" height="52" fill="white" transform="translate(0.158905 0.810059)"/>
</clipPath>
</defs>
</svg>
