<svg width="41" height="41" viewBox="0 0 41 41" fill="none" xmlns="http://www.w3.org/2000/svg">
<g clip-path="url(#clip0_1_399)">
<path fill-rule="evenodd" clip-rule="evenodd" d="M21.5739 15.9461L21.6039 15.9501L21.6339 15.9551C21.624 15.9528 21.614 15.9511 21.6039 15.9501C21.5939 15.9491 21.5839 15.9491 21.5739 15.9461C21.5244 15.9317 21.4808 15.9009 21.4494 15.8601C21.4179 15.8193 21.4002 15.7696 21.3989 15.7181L21.3999 13.4201V15.7181C21.4019 15.8241 21.4759 15.9181 21.5749 15.9451L21.5739 15.9461ZM21.2099 12.4561L21.2129 4.88607L21.2119 2.93907C21.211 2.91771 21.2117 2.89633 21.2139 2.87507L21.2149 1.79007C21.2145 1.73363 21.2254 1.67767 21.2469 1.62549C21.2684 1.5733 21.3001 1.52594 21.3401 1.48616C21.3802 1.44639 21.4278 1.41502 21.4801 1.39388C21.5324 1.37274 21.5885 1.36227 21.6449 1.36307C21.7011 1.36306 21.7567 1.37423 21.8086 1.39591C21.8604 1.41759 21.9074 1.44936 21.9468 1.48937C21.9863 1.52938 22.0174 1.57683 22.0384 1.62897C22.0593 1.6811 22.0697 1.73689 22.0689 1.79307V2.23107C22.5789 1.98907 23.3449 1.66307 24.1919 1.43607L24.3759 1.38607L24.3799 1.40007C25.1019 1.22207 25.8829 1.12007 26.6129 1.21207C27.6259 1.34207 28.9529 1.24807 30.0429 1.11707C30.5 1.06186 30.9558 0.996178 31.4099 0.920068C31.7209 0.868068 31.9159 0.830068 31.9549 0.823068L31.9639 0.820068L31.9699 0.819068L31.9759 0.817068C32.0538 0.801334 32.1345 0.807593 32.209 0.835146C32.2836 0.862698 32.349 0.910455 32.3979 0.973068L32.4019 0.978068L32.4049 0.983068C32.4879 1.10307 32.5189 1.27307 32.4419 1.42507L30.9679 4.44507L32.6179 6.63907C32.7019 6.74907 32.7279 6.89007 32.6859 7.02507L32.6849 7.02907L32.6839 7.03307C32.6626 7.09656 32.6265 7.15411 32.5788 7.20103C32.531 7.24795 32.4728 7.28292 32.4089 7.30307C31.7909 7.51307 30.7829 7.65507 29.6659 7.76007C28.5008 7.86201 27.3339 7.94269 26.1659 8.00207C24.4119 8.10007 22.6639 8.91807 22.0659 9.22307L22.0649 12.4561H36.9949C37.5239 12.4561 38.0169 12.7241 38.3039 13.1681L41.7399 18.4911C41.79 18.5685 41.8167 18.6588 41.8169 18.7511V39.8461H42.9559C43.0798 39.8517 43.1968 39.9049 43.2824 39.9946C43.3681 40.0843 43.4159 40.2035 43.4159 40.3276C43.4159 40.4516 43.3681 40.5709 43.2824 40.6605C43.1968 40.7502 43.0798 40.8034 42.9559 40.8091H1.8129C1.68899 40.8034 1.57203 40.7502 1.48635 40.6605C1.40066 40.5709 1.35284 40.4516 1.35284 40.3276C1.35284 40.2035 1.40066 40.0843 1.48635 39.9946C1.57203 39.9049 1.68899 39.8517 1.8129 39.8461H3.3189V18.7401L3.3199 18.7251C3.32341 18.6637 3.33868 18.6036 3.3649 18.5481L5.6529 13.3841C5.77478 13.1083 5.97415 12.8739 6.22677 12.7093C6.4794 12.5447 6.77439 12.4571 7.0759 12.4571H21.2099V12.4561ZM22.0639 13.4201H36.9939C37.1959 13.4201 37.3839 13.5221 37.4939 13.6921L40.4499 18.2721H4.5399L6.5329 13.7741C6.57939 13.6688 6.65546 13.5793 6.75185 13.5165C6.84825 13.4536 6.96082 13.4201 7.0759 13.4201H21.2089L21.2079 15.7201V15.7231C21.2104 15.8159 21.2425 15.9054 21.2996 15.9786C21.3566 16.0519 21.4355 16.1049 21.5249 16.1301C21.543 16.1346 21.5614 16.138 21.5799 16.1401H21.5879L21.5889 16.1411L21.6059 16.1461H21.6289C21.6856 16.1473 21.7419 16.1371 21.7946 16.1161C21.8473 16.0952 21.8953 16.0639 21.9356 16.0241C21.976 15.9842 22.008 15.9367 22.0297 15.8844C22.0513 15.832 22.0623 15.7758 22.0619 15.7191L22.0639 13.4201ZM26.0139 7.82007L26.1539 7.81007C26.1072 7.81292 26.0605 7.81625 26.0139 7.82007ZM24.2399 1.62007C23.4239 1.84732 22.6323 2.15482 21.8769 2.53807C22.3499 2.29807 23.2379 1.88907 24.2399 1.62007ZM30.2709 4.63007C30.2451 4.59461 30.2294 4.55286 30.2254 4.50922C30.2213 4.46558 30.2291 4.42166 30.2479 4.38207C30.2291 4.42166 30.2213 4.46659 30.2254 4.51022C30.2294 4.55386 30.2451 4.59561 30.2709 4.63107V4.63007ZM22.0649 8.47207C22.6729 8.18207 23.7249 7.73807 24.9139 7.49607C23.5879 7.76607 22.4339 8.28607 21.8739 8.56607C21.9319 8.53607 21.9949 8.50607 22.0649 8.47207ZM31.5379 6.63807L30.1159 4.74207L30.1139 4.73907C30.0685 4.67538 30.041 4.60061 30.0345 4.52265C30.028 4.44469 30.0427 4.36641 30.0769 4.29607L31.2999 1.79607C30.1539 1.97707 28.0499 2.25107 26.4999 2.04907C25.6499 1.93907 24.6599 2.15907 23.7989 2.45207C23.0339 2.71207 22.3899 3.02307 22.0679 3.18907L22.0649 8.26107C22.9049 7.86607 24.4719 7.23807 26.1089 7.14407L26.2069 7.13807C28.0679 7.03007 30.2579 6.90307 31.5379 6.63807ZM4.2819 19.2341H40.8519V39.8471H26.8869V35.1951C26.8869 34.6085 26.7714 34.0276 26.5469 33.4856C26.3224 32.9437 25.9933 32.4512 25.5785 32.0364C25.1637 31.6216 24.6713 31.2926 24.1293 31.0681C23.5874 30.8436 23.0065 30.7281 22.4199 30.7281C21.8333 30.7281 21.2524 30.8436 20.7104 31.0681C20.1685 31.2926 19.676 31.6216 19.2612 32.0364C18.8465 32.4512 18.5174 32.9437 18.2929 33.4856C18.0684 34.0276 17.9529 34.6085 17.9529 35.1951V39.8471H4.2819V19.2341ZM25.9239 35.1951V39.8471H18.9159V35.1951C18.9159 34.2658 19.2851 33.3745 19.9422 32.7174C20.5993 32.0602 21.4906 31.6911 22.4199 31.6911C23.3492 31.6911 24.2405 32.0602 24.8976 32.7174C25.5547 33.3745 25.9239 34.2658 25.9239 35.1951ZM8.6239 23.2671C8.6239 22.9091 8.9139 22.6191 9.27189 22.6191H12.8289C13.1869 22.6191 13.4769 22.9091 13.4769 23.2671V26.8241C13.4769 27.1821 13.1869 27.4721 12.8289 27.4721H9.2709C9.09904 27.4721 8.93421 27.4038 8.81269 27.2823C8.69117 27.1608 8.6229 26.9959 8.6229 26.8241L8.6239 23.2671ZM9.27189 21.6571C8.3819 21.6571 7.6619 22.3771 7.6619 23.2671V26.8241C7.6619 27.7141 8.3819 28.4341 9.27189 28.4341H12.8289C13.7189 28.4341 14.4389 27.7141 14.4389 26.8241V23.2671C14.4389 22.3771 13.7189 21.6571 12.8289 21.6571H9.27189ZM20.3239 22.6191C20.152 22.6191 19.9872 22.6873 19.8657 22.8089C19.7442 22.9304 19.6759 23.0952 19.6759 23.2671V26.8241C19.6759 27.1821 19.9659 27.4721 20.3239 27.4721H23.8809C24.2389 27.4721 24.5289 27.1821 24.5289 26.8241V23.2671C24.5289 23.0952 24.4606 22.9304 24.3391 22.8089C24.2176 22.6873 24.0528 22.6191 23.8809 22.6191H20.3239ZM18.7139 23.2671C18.7139 22.3771 19.4339 21.6571 20.3239 21.6571H23.8809C24.7709 21.6571 25.4909 22.3771 25.4909 23.2671V26.8241C25.4909 27.7141 24.7709 28.4341 23.8809 28.4341H20.3239C19.8969 28.4341 19.4874 28.2644 19.1855 27.9625C18.8835 27.6606 18.7139 27.2511 18.7139 26.8241V23.2671ZM8.6239 32.1531C8.6239 31.7961 8.9139 31.5061 9.27189 31.5061H12.8289C13.1869 31.5061 13.4769 31.7961 13.4769 32.1531V35.7111C13.4769 36.0681 13.1869 36.3581 12.8289 36.3581H9.2709C9.09921 36.3581 8.93454 36.2899 8.81304 36.1686C8.69155 36.0473 8.62316 35.8828 8.6229 35.7111L8.6239 32.1531ZM9.27189 30.5431C8.3819 30.5431 7.6619 31.2631 7.6619 32.1531V35.7111C7.6619 36.6011 8.3819 37.3211 9.27189 37.3211H12.8289C13.7189 37.3211 14.4389 36.6011 14.4389 35.7111V32.1531C14.4389 31.2631 13.7189 30.5431 12.8289 30.5431H9.27189ZM31.3119 22.6191C31.1402 22.6193 30.9756 22.6877 30.8543 22.8092C30.733 22.9307 30.6649 23.0954 30.6649 23.2671V26.8241C30.6649 27.1821 30.9549 27.4721 31.3119 27.4721H34.8699C35.2269 27.4721 35.5169 27.1821 35.5169 26.8241V23.2671C35.5169 23.0954 35.4488 22.9307 35.3275 22.8092C35.2061 22.6877 35.0416 22.6193 34.8699 22.6191H31.3119ZM29.7019 23.2671C29.7019 22.3771 30.4219 21.6571 31.3119 21.6571H34.8699C35.7599 21.6571 36.4799 22.3771 36.4799 23.2671V26.8241C36.4799 27.7141 35.7599 28.4341 34.8699 28.4341H31.3119C30.8849 28.4341 30.4754 28.2644 30.1735 27.9625C29.8715 27.6606 29.7019 27.2511 29.7019 26.8241V23.2671ZM30.6649 32.1531C30.6649 31.7961 30.9549 31.5061 31.3119 31.5061H34.8699C35.2269 31.5061 35.5169 31.7961 35.5169 32.1531V35.7111C35.5169 36.0681 35.2269 36.3581 34.8699 36.3581H31.3119C31.1404 36.3578 30.976 36.2896 30.8547 36.1683C30.7334 36.047 30.6652 35.8826 30.6649 35.7111V32.1531ZM31.3119 30.5431C30.4219 30.5431 29.7019 31.2631 29.7019 32.1531V35.7111C29.7019 36.6011 30.4219 37.3211 31.3119 37.3211H34.8699C35.7599 37.3211 36.4799 36.6011 36.4799 35.7111V32.1531C36.4799 31.2631 35.7599 30.5431 34.8699 30.5431H31.3119Z" fill="#61E061"/>
</g>
<defs>
<clipPath id="clip0_1_399">
<rect width="40" height="40" fill="white" transform="translate(0.883911 0.810059)"/>
</clipPath>
</defs>
</svg>
