<svg width="53" height="53" viewBox="0 0 53 53" fill="none" xmlns="http://www.w3.org/2000/svg">
<g clip-path="url(#clip0_1_335)">
<g clip-path="url(#clip1_1_335)">
<g clip-path="url(#clip2_1_335)">
<path d="M26.6589 41.7241C26.6589 41.7241 26.3949 41.7241 26.2619 41.6451C26.1077 41.5837 25.9699 41.4871 25.8595 41.3632C25.7491 41.2393 25.6691 41.0913 25.6259 40.9311C25.6259 40.8781 24.4859 36.3261 20.8549 32.7001C17.1959 29.0481 12.6629 27.9361 12.6099 27.9361C12.4443 27.8977 12.2903 27.8199 12.1612 27.7094C12.032 27.5988 11.9314 27.4588 11.8679 27.3011C11.8018 27.1479 11.7745 26.9808 11.7885 26.8145C11.8025 26.6483 11.8572 26.4881 11.9479 26.3481C28.1709 1.12906 51.4719 0.810059 51.7109 0.810059C52.0019 0.810059 52.2669 0.916059 52.4529 1.12806C52.6389 1.31306 52.7709 1.60406 52.7709 1.86806C52.7709 2.10706 52.4529 25.3691 27.1909 41.5661C27.0236 41.6704 26.8301 41.7251 26.6329 41.7241H26.6589ZM14.5189 26.3221C16.3219 26.9571 19.5559 28.4121 22.3389 31.2181C25.1489 34.0231 26.6069 37.2261 27.2429 39.0251C47.3099 25.5551 50.2259 7.58506 50.6229 2.95406C45.9849 3.37706 27.9849 6.26206 14.4929 26.2961L14.5189 26.3221Z" fill="#F6543B"/>
<path d="M1.9329 24.4431C1.5899 24.4431 1.2729 24.2841 1.0609 23.9941C0.946902 23.8279 0.883658 23.6321 0.878865 23.4306C0.874071 23.2291 0.927935 23.0305 1.0339 22.8591C9.7589 8.61008 24.5089 12.5681 24.6669 12.5941C25.2219 12.7531 25.5389 13.3341 25.3799 13.8871C25.2219 14.4421 24.6399 14.7851 24.0849 14.6271C23.5829 14.4941 12.0839 11.4601 4.1799 21.9621C9.0439 21.1701 15.3349 20.5371 16.6569 22.3051C17.0009 22.7801 16.9209 23.4131 16.4449 23.7561C16.2236 23.9186 15.9472 23.9877 15.6754 23.9484C15.4036 23.9091 15.1582 23.7646 14.9919 23.5461C14.1719 22.8861 8.2509 23.2811 2.1179 24.4431H1.9329ZM30.3519 52.8101C30.1348 52.814 29.922 52.7493 29.7439 52.6251C29.5786 52.5092 29.4506 52.3478 29.3755 52.1605C29.3004 51.9731 29.2814 51.768 29.3209 51.5701C30.4839 45.4481 30.8809 39.5371 30.1929 38.6931C29.7169 38.3491 29.6649 37.7161 30.0079 37.2411C30.0909 37.1291 30.1958 37.0351 30.3162 36.9647C30.4366 36.8944 30.57 36.8492 30.7083 36.8319C30.8467 36.8146 30.9871 36.8256 31.1211 36.8641C31.2551 36.9026 31.3799 36.9679 31.4879 37.0561C33.2599 38.3761 32.6249 44.6561 31.8319 49.5121C42.3789 41.5421 39.2069 29.7731 39.1809 29.6421C39.1134 29.3786 39.1511 29.0993 39.2861 28.8632C39.4211 28.6271 39.6427 28.4529 39.904 28.3774C40.1653 28.302 40.4457 28.3313 40.6857 28.4591C40.9258 28.5869 41.1066 28.8032 41.1899 29.0621C41.2429 29.2191 45.1809 43.9441 30.9069 52.6521C30.7479 52.7571 30.5369 52.8101 30.3519 52.8101ZM46.9489 19.5261C46.6716 19.5256 46.4058 19.4154 46.2095 19.2196C46.0132 19.0238 45.9022 18.7583 45.9009 18.4811C45.9009 15.0071 44.9039 12.2901 42.9899 10.4611C39.8429 7.48308 35.1749 7.66608 35.1219 7.69208C34.5189 7.69208 34.0729 7.27408 34.0209 6.69908C34.0116 6.42687 34.107 6.16146 34.2875 5.95742C34.4679 5.75338 34.7196 5.62621 34.9909 5.60208C35.2269 5.60208 40.5769 5.34108 44.3799 8.94608C46.7659 11.1931 47.9719 14.4061 47.9719 18.4811C47.9706 18.7585 47.8595 19.0242 47.663 19.22C47.4664 19.4158 47.2003 19.5258 46.9229 19.5261H46.9489ZM32.2779 27.7701C30.5512 27.7748 28.8897 27.1107 27.6419 25.9171C27.038 25.3436 26.5571 24.6531 26.2285 23.8879C25.8998 23.1226 25.7304 22.2984 25.7304 21.4656C25.7304 20.6327 25.8998 19.8086 26.2285 19.0433C26.5571 18.278 27.038 17.5876 27.6419 17.0141C30.1899 14.5601 34.3379 14.5601 36.8859 17.0141C38.1329 18.2151 38.8109 19.7821 38.8109 21.4791C38.8109 23.1761 38.1329 24.7421 36.8859 25.9431C35.6389 27.1431 33.9309 27.7961 32.2509 27.7961L32.2779 27.7701ZM32.2779 17.2501C31.1659 17.2501 30.0279 17.6671 29.1599 18.4761C28.755 18.8616 28.4326 19.3254 28.2124 19.8393C27.9921 20.3532 27.8785 20.9065 27.8785 21.4656C27.8785 22.0247 27.9921 22.578 28.2124 23.0918C28.4326 23.6057 28.755 24.0695 29.1599 24.4551C30.8679 26.0991 33.6599 26.0991 35.3679 24.4551C35.7753 24.069 36.0986 23.603 36.3178 23.0863C36.537 22.5696 36.6474 22.0133 36.6419 21.4521C36.6419 20.3041 36.1819 19.2601 35.3679 18.4501C34.5549 17.6401 33.3889 17.2231 32.2509 17.2231L32.2779 17.2491V17.2501ZM8.2839 46.4771C8.0189 46.4771 7.7549 46.3711 7.5439 46.1601C7.35311 45.9614 7.24656 45.6966 7.24656 45.4211C7.24656 45.1456 7.35311 44.8808 7.5439 44.6821L18.1439 34.1011C18.3432 33.9106 18.6082 33.8043 18.8839 33.8043C19.1596 33.8043 19.4246 33.9106 19.6239 34.1011C19.8147 34.2998 19.9212 34.5646 19.9212 34.8401C19.9212 35.1156 19.8147 35.3804 19.6239 35.5791L9.0239 46.1601C8.92764 46.2592 8.81267 46.3383 8.68565 46.3927C8.55863 46.4471 8.42208 46.4758 8.2839 46.4771ZM16.6589 45.6591C16.3939 45.6591 16.1299 45.5531 15.9189 45.3421C15.7281 45.1434 15.6216 44.8786 15.6216 44.6031C15.6216 44.3276 15.7281 44.0628 15.9189 43.8641L21.5489 38.2441C21.7482 38.0536 22.0132 37.9473 22.2889 37.9473C22.5646 37.9473 22.8296 38.0536 23.0289 38.2441C23.2196 38.4426 23.3262 38.7073 23.3262 38.9826C23.3262 39.2579 23.2196 39.5225 23.0289 39.7211L17.3989 45.3421C17.3026 45.4412 17.1877 45.5203 17.0607 45.5747C16.9336 45.6291 16.7971 45.6578 16.6589 45.6591ZM9.1269 38.1381C8.8629 38.1381 8.5989 38.0321 8.3869 37.8211C8.19611 37.6224 8.08956 37.3576 8.08956 37.0821C8.08956 36.8066 8.19611 36.5418 8.3869 36.3431L14.0169 30.7231C14.2162 30.5323 14.4815 30.4258 14.7574 30.4258C15.0333 30.4258 15.2986 30.5323 15.4979 30.7231C15.6887 30.9218 15.7952 31.1866 15.7952 31.4621C15.7952 31.7376 15.6887 32.0024 15.4979 32.2011L9.8679 37.8211C9.77164 37.9202 9.65668 37.9993 9.52965 38.0537C9.40263 38.1081 9.26508 38.1368 9.1269 38.1381Z" fill="#F6543B"/>
</g>
</g>
</g>
<defs>
<clipPath id="clip0_1_335">
<rect width="52" height="52" fill="white" transform="translate(0.878906 0.810059)"/>
</clipPath>
<clipPath id="clip1_1_335">
<rect width="52" height="52" fill="white" transform="translate(0.878906 0.810059)"/>
</clipPath>
<clipPath id="clip2_1_335">
<rect width="52" height="52" fill="white" transform="translate(0.878906 0.810059)"/>
</clipPath>
</defs>
</svg>
