<svg width="53" height="53" viewBox="0 0 53 53" fill="none" xmlns="http://www.w3.org/2000/svg">
<g clip-path="url(#clip0_1_363)">
<g clip-path="url(#clip1_1_363)">
<path d="M31.4599 42.1671H20.3479C20.2476 42.1672 20.1484 42.1476 20.0557 42.1093C19.9631 42.071 19.8789 42.0148 19.8081 41.9439C19.7372 41.873 19.681 41.7889 19.6427 41.6962C19.6044 41.6036 19.5847 41.5043 19.5849 41.4041V40.1401C19.5849 34.6071 17.9949 28.9281 14.9769 23.7201C13.7595 21.6275 13.1736 19.2273 13.2899 16.8091C13.5979 10.0921 19.3249 4.6721 26.0419 4.7691C32.9379 4.8351 38.5359 10.5131 38.5359 17.4091C38.5359 19.7451 37.8859 22.0331 36.6699 24.0121C33.7649 28.7501 32.2239 34.4451 32.2239 40.4641V41.4211C32.2239 41.8431 31.8839 42.1841 31.4619 42.1841V42.1681L31.4599 42.1671ZM21.1099 40.6251H30.6819V40.4311C30.6819 34.1191 32.3039 28.1491 35.3549 23.1681C36.4266 21.426 36.9937 19.4205 36.9929 17.3751C36.9929 11.3241 32.0609 6.3431 26.0089 6.2781H25.8949C20.0379 6.2781 15.0739 10.9991 14.8139 16.8561C14.7087 18.9789 15.2214 21.0867 16.2899 22.9241C19.4379 28.3601 21.1099 34.2981 21.1099 40.1061V40.6251Z" fill="#61E061"/>
<path d="M25.8959 52.81C22.0019 52.81 18.8219 49.63 18.8219 45.736V41.647C18.8219 41.226 19.1619 40.885 19.5839 40.885H32.1909C32.6129 40.885 32.9529 41.225 32.9529 41.647V45.737C32.9529 49.63 29.7729 52.81 25.8799 52.81H25.8959ZM20.3629 42.426V45.736C20.3648 47.2029 20.9483 48.6091 21.9855 49.6464C23.0228 50.6836 24.429 51.2672 25.8959 51.269C27.3626 51.2669 28.7686 50.6832 29.8056 49.646C30.8427 48.6088 31.426 47.2027 31.4279 45.736V42.426H20.3629Z" fill="#61E061"/>
<path d="M32.0397 45.0551H19.7097C19.5075 45.0551 19.3135 44.9747 19.1705 44.8317C19.0275 44.6887 18.9472 44.4948 18.9472 44.2926C18.9472 44.0903 19.0275 43.8964 19.1705 43.7534C19.3135 43.6104 19.5075 43.5301 19.7097 43.5301H32.0387C32.2409 43.5301 32.4349 43.6104 32.5778 43.7534C32.7208 43.8964 32.8012 44.0903 32.8012 44.2926C32.8012 44.4948 32.7208 44.6887 32.5778 44.8317C32.4349 44.9747 32.2419 45.0551 32.0397 45.0551ZM16.3417 50.1821C16.2415 50.1841 16.1421 50.1649 16.0499 50.1258C15.9577 50.0867 15.8748 50.0285 15.8067 49.9551C15.6632 49.8133 15.5817 49.6207 15.5797 49.4191V49.2731C15.5797 49.2251 15.6117 49.1761 15.6277 49.1271C15.6447 49.0791 15.6767 49.0301 15.6927 48.9971C15.7257 48.9491 15.7577 48.9171 15.7907 48.8841C16.0657 48.5921 16.5857 48.5921 16.8777 48.8841C16.9097 48.9161 16.9417 48.9651 16.9747 48.9981C17.0027 49.0379 17.0247 49.0817 17.0397 49.1281L17.0887 49.2731V49.4191C17.0907 49.5194 17.0715 49.6191 17.0322 49.7115C16.9929 49.8039 16.9344 49.8869 16.8607 49.9551C16.715 50.092 16.5253 50.1725 16.3257 50.1821H16.3417ZM10.5327 46.9371C10.4518 46.877 10.3838 46.8014 10.3326 46.7148C10.2814 46.6281 10.248 46.532 10.2344 46.4323C10.2208 46.3325 10.2273 46.231 10.2534 46.1338C10.2796 46.0366 10.3249 45.9455 10.3867 45.8661C10.4467 45.7854 10.5222 45.7175 10.6088 45.6663C10.6954 45.6152 10.7914 45.5819 10.891 45.5683C10.9907 45.5547 11.092 45.5611 11.1891 45.5872C11.2863 45.6132 11.3772 45.6584 11.4567 45.7201C11.7977 45.9801 11.8627 46.4501 11.6037 46.7901C11.5322 46.8863 11.4391 46.9645 11.332 47.0183C11.2248 47.0721 11.1066 47.1001 10.9867 47.1001C10.8205 47.103 10.659 47.045 10.5327 46.9371ZM40.8247 46.5151C40.7617 46.4352 40.7151 46.3437 40.6875 46.2458C40.66 46.1479 40.652 46.0456 40.6641 45.9446C40.6762 45.8436 40.7081 45.746 40.7579 45.6574C40.8078 45.5687 40.8746 45.4908 40.9547 45.4281C41.2947 45.1681 41.7647 45.2171 42.0247 45.5581C42.2847 45.8981 42.2357 46.3851 41.8947 46.6451C41.7609 46.7507 41.5952 46.8078 41.4247 46.8071C41.3089 46.8084 41.1943 46.7827 41.0902 46.732C40.986 46.6813 40.8951 46.607 40.8247 46.5151ZM5.97368 42.4911C5.84832 42.3304 5.79006 42.1275 5.81113 41.9248C5.83219 41.7221 5.93095 41.5355 6.08668 41.4041C6.24821 41.2771 6.45357 41.2194 6.65759 41.2438C6.86162 41.2682 7.04761 41.3726 7.17468 41.5341C7.43468 41.8591 7.38468 42.3451 7.06068 42.6041C6.92194 42.7128 6.74993 42.7704 6.57368 42.7671C6.45815 42.7667 6.34419 42.7402 6.24031 42.6896C6.13642 42.6391 6.04528 42.5657 5.97368 42.4751V42.4911ZM45.3027 42.2641C45.1393 42.1392 45.0321 41.9546 45.0047 41.7508C44.9774 41.547 45.032 41.3406 45.1567 41.1771C45.2167 41.0964 45.2922 41.0285 45.3788 40.9773C45.4654 40.9262 45.5614 40.8929 45.661 40.8793C45.7607 40.8657 45.862 40.8721 45.9591 40.8982C46.0563 40.9242 46.1472 40.9694 46.2267 41.0311C46.5677 41.2911 46.6327 41.7771 46.3727 42.1011C46.3116 42.1829 46.2348 42.2518 46.1468 42.3036C46.0588 42.3554 45.9613 42.3892 45.8601 42.4029C45.7588 42.4166 45.6559 42.4099 45.5573 42.3833C45.4586 42.3568 45.3663 42.3108 45.2857 42.2481L45.3027 42.2641ZM2.64768 37.0721C2.60598 36.9794 2.58299 36.8794 2.58003 36.7778C2.57707 36.6762 2.5942 36.575 2.63043 36.4801C2.66667 36.3851 2.7213 36.2982 2.79118 36.2245C2.86107 36.1507 2.94483 36.0914 3.03768 36.0501C3.42668 35.8721 3.88068 36.0501 4.05868 36.4231C4.23768 36.8131 4.05868 37.2671 3.68568 37.4451C3.58411 37.4913 3.47324 37.5136 3.36168 37.5101C3.21364 37.5112 3.06854 37.4687 2.94443 37.388C2.82033 37.3073 2.7227 37.1918 2.66368 37.0561L2.64768 37.0721ZM48.5957 37.0401C48.4091 36.9597 48.2619 36.8089 48.186 36.6204C48.1102 36.432 48.1118 36.2213 48.1907 36.0341C48.2709 35.8476 48.4214 35.7003 48.6096 35.6243C48.7979 35.5482 49.0085 35.5496 49.1957 35.6281C49.3824 35.7082 49.5299 35.859 49.6059 36.0474C49.682 36.2359 49.6804 36.4467 49.6017 36.6341C49.5428 36.7698 49.4453 36.8852 49.3214 36.9661C49.1975 37.047 49.0526 37.0897 48.9047 37.0891C48.7981 37.0911 48.6924 37.0688 48.5957 37.0241V37.0401ZM0.765678 31.0041C0.733709 30.8047 0.779917 30.6006 0.894673 30.4344C1.00943 30.2683 1.18388 30.1528 1.38168 30.1121C1.48081 30.0933 1.58268 30.0944 1.68139 30.1153C1.7801 30.1362 1.87368 30.1764 1.95673 30.2337C2.03978 30.291 2.11064 30.3642 2.16522 30.449C2.21979 30.5339 2.257 30.6287 2.27468 30.7281C2.29342 30.8273 2.29229 30.9292 2.27134 31.028C2.2504 31.1267 2.21007 31.2204 2.15268 31.3034C2.09529 31.3865 2.02198 31.4573 1.93701 31.5118C1.85204 31.5664 1.7571 31.6035 1.65768 31.6211H1.52768C1.34633 31.6227 1.17028 31.56 1.03078 31.4441C0.89128 31.3282 0.797355 31.1666 0.765678 30.9881V31.0041ZM50.5107 31.1661C50.4106 31.1523 50.3143 31.1184 50.2277 31.0664C50.1411 31.0144 50.0659 30.9454 50.0067 30.8635C49.9476 30.7816 49.9056 30.6886 49.8834 30.59C49.8613 30.4914 49.8593 30.3894 49.8777 30.2901C49.8914 30.19 49.9253 30.0937 49.9773 30.0071C50.0293 29.9205 50.0983 29.8453 50.1802 29.7861C50.2621 29.7269 50.3552 29.685 50.4537 29.6628C50.5523 29.6406 50.6543 29.6387 50.7537 29.6571C50.8539 29.6708 50.9502 29.7047 51.0369 29.7568C51.1236 29.8088 51.1989 29.878 51.258 29.96C51.3172 30.042 51.3591 30.1351 51.3813 30.2338C51.4034 30.3325 51.4052 30.4346 51.3867 30.5341C51.3557 30.7145 51.2624 30.8784 51.1229 30.997C50.9835 31.1156 50.8068 31.1815 50.6237 31.1831H50.5107V31.1661ZM1.15468 25.4721C0.950686 25.4557 0.761358 25.3596 0.627713 25.2046C0.494068 25.0496 0.42687 24.8482 0.440678 24.6441C0.447501 24.5426 0.474416 24.4434 0.519861 24.3524C0.565306 24.2614 0.628375 24.1804 0.705407 24.114C0.782439 24.0475 0.871899 23.9971 0.968594 23.9655C1.06529 23.9339 1.16729 23.9219 1.26868 23.9301C1.47267 23.9464 1.662 24.0425 1.79564 24.1975C1.92929 24.3525 1.99649 24.5539 1.98268 24.7581C1.97021 24.9518 1.88435 25.1335 1.74259 25.2662C1.60083 25.3988 1.41383 25.4725 1.21968 25.4721H1.15468ZM50.0887 24.3201C50.08 24.2199 50.0912 24.1191 50.1216 24.0232C50.1519 23.9274 50.2009 23.8385 50.2656 23.7616C50.3303 23.6847 50.4096 23.6213 50.4988 23.5751C50.5881 23.5288 50.6855 23.5006 50.7857 23.4921C50.8862 23.4819 50.9877 23.492 51.0842 23.5219C51.1807 23.5517 51.2702 23.6006 51.3475 23.6657C51.4247 23.7309 51.4881 23.8108 51.5338 23.9009C51.5795 23.9909 51.6067 24.0893 51.6137 24.1901C51.6222 24.2902 51.6109 24.391 51.5804 24.4868C51.5499 24.5826 51.5008 24.6714 51.436 24.7482C51.3712 24.825 51.2919 24.8883 51.2026 24.9344C51.1133 24.9805 51.0158 25.0086 50.9157 25.0171H50.8507C50.6592 25.0182 50.4744 24.9471 50.3331 24.8179C50.1918 24.6886 50.1045 24.5109 50.0887 24.3201ZM2.16068 19.3871C2.06377 19.3567 1.97396 19.3071 1.89663 19.2413C1.81929 19.1755 1.75601 19.0948 1.71055 19.004C1.6651 18.9132 1.63841 18.8141 1.63207 18.7128C1.62574 18.6114 1.63989 18.5098 1.67368 18.4141C1.70402 18.317 1.75361 18.2271 1.8195 18.1497C1.88538 18.0723 1.96621 18.0089 2.05714 17.9635C2.14807 17.918 2.24723 17.8914 2.3487 17.8851C2.45017 17.8788 2.55185 17.8931 2.64768 17.9271C3.05268 18.0571 3.26368 18.4951 3.13468 18.9011C3.08374 19.0551 2.98605 19.1894 2.85521 19.2853C2.72437 19.3812 2.56688 19.4339 2.40468 19.4361C2.32268 19.4361 2.24168 19.4361 2.16068 19.3871ZM48.8227 18.4791C48.7881 18.3843 48.7729 18.2837 48.7779 18.1829C48.7829 18.0822 48.808 17.9836 48.8519 17.8927C48.8957 17.8019 48.9573 17.7208 49.033 17.6542C49.1087 17.5876 49.197 17.5369 49.2927 17.5051C49.3874 17.4703 49.4881 17.455 49.5889 17.4599C49.6896 17.4649 49.7883 17.49 49.8792 17.5338C49.97 17.5777 50.0511 17.6393 50.1177 17.7151C50.1843 17.7909 50.2349 17.8793 50.2667 17.9751C50.3023 18.0697 50.3183 18.1706 50.3138 18.2716C50.3092 18.3726 50.2842 18.4717 50.2403 18.5627C50.1963 18.6538 50.1344 18.735 50.0581 18.8014C49.9819 18.8678 49.8929 18.918 49.7967 18.9491C49.7009 18.9847 49.599 19.0008 49.4969 18.9964C49.3948 18.992 49.2947 18.9671 49.2024 18.9233C49.11 18.8795 49.0275 18.8176 48.9595 18.7413C48.8915 18.665 48.8396 18.5758 48.8067 18.4791H48.8227ZM4.64268 13.7401C4.28668 13.5131 4.17268 13.0261 4.39968 12.6861C4.45287 12.6007 4.52236 12.5267 4.6042 12.4682C4.68603 12.4097 4.77859 12.3679 4.87658 12.3453C4.97457 12.3226 5.07607 12.3195 5.17527 12.3361C5.27446 12.3527 5.36941 12.3887 5.45468 12.4421C5.62326 12.5528 5.74262 12.7243 5.78789 12.9208C5.83316 13.1173 5.80084 13.3238 5.69768 13.4971C5.62837 13.6065 5.53253 13.6966 5.41906 13.759C5.30559 13.8214 5.17818 13.8541 5.04868 13.8541C4.90362 13.8509 4.76259 13.8058 4.64268 13.7241V13.7401ZM46.1457 13.1241C46.0882 13.0402 46.048 12.9458 46.0274 12.8462C46.0069 12.7466 46.0065 12.644 46.0261 12.5442C46.0458 12.4445 46.0851 12.3497 46.1419 12.2653C46.1987 12.181 46.2717 12.1088 46.3567 12.0531C46.4389 11.9952 46.5321 11.9546 46.6305 11.9339C46.7289 11.9131 46.8305 11.9125 46.9292 11.9321C47.0278 11.9517 47.1214 11.9912 47.2044 12.0481C47.2873 12.105 47.3578 12.1781 47.4117 12.2631C47.4692 12.3469 47.5094 12.4414 47.5299 12.5409C47.5504 12.6405 47.5509 12.7432 47.5312 12.8429C47.5116 12.9426 47.4722 13.0375 47.4155 13.1218C47.3587 13.2061 47.2857 13.2783 47.2007 13.3341C47.0749 13.4159 46.9287 13.461 46.7787 13.4641C46.6531 13.4654 46.5292 13.4349 46.4185 13.3754C46.3078 13.316 46.214 13.2295 46.1457 13.1241ZM8.42368 8.85706C8.3191 8.74623 8.24976 8.60686 8.22443 8.4566C8.19911 8.30635 8.21893 8.15195 8.28139 8.01296C8.34386 7.87398 8.44616 7.75665 8.57534 7.67583C8.70452 7.59502 8.85478 7.55435 9.00709 7.55897C9.1594 7.5636 9.30691 7.61331 9.43095 7.70181C9.55499 7.79031 9.64998 7.91363 9.7039 8.05615C9.75782 8.19867 9.76824 8.35398 9.73385 8.50243C9.69945 8.65087 9.62178 8.78578 9.51068 8.89006C9.43967 8.95877 9.35573 9.01272 9.26372 9.04877C9.17171 9.08481 9.07347 9.10225 8.97468 9.10006C8.87081 9.10127 8.76788 9.08021 8.67283 9.03829C8.57779 8.99638 8.49283 8.93458 8.42368 8.85706ZM42.2357 8.59706C42.1232 8.49428 42.0438 8.36046 42.0074 8.21252C41.971 8.06458 41.9794 7.90918 42.0313 7.76597C42.0833 7.62277 42.1766 7.4982 42.2994 7.40803C42.4222 7.31786 42.569 7.26614 42.7212 7.25942C42.8734 7.2527 43.0241 7.29128 43.1544 7.37028C43.2847 7.44927 43.3886 7.56513 43.453 7.7032C43.5174 7.84126 43.5394 7.99533 43.5162 8.1459C43.493 8.29646 43.4256 8.43677 43.3227 8.54906C43.2503 8.62721 43.1624 8.6893 43.0646 8.73133C42.9667 8.77336 42.8612 8.79439 42.7547 8.79306C42.5639 8.79235 42.3797 8.72215 42.2357 8.59706ZM13.2907 5.07706C13.193 4.90043 13.1688 4.6924 13.2235 4.49809C13.2782 4.30377 13.4072 4.13884 13.5827 4.03906C13.6696 3.98822 13.7659 3.95541 13.8658 3.9426C13.9657 3.92978 14.0672 3.93722 14.1642 3.96447C14.2611 3.99172 14.3516 4.03823 14.4302 4.10121C14.5088 4.16419 14.5739 4.24236 14.6217 4.33106C14.6719 4.41807 14.7043 4.51427 14.7168 4.61398C14.7293 4.71368 14.7217 4.81488 14.6945 4.91162C14.6673 5.00835 14.621 5.09866 14.5583 5.17722C14.4957 5.25579 14.4179 5.32101 14.3297 5.36906C14.2156 5.43333 14.0867 5.46676 13.9557 5.46606C13.8163 5.46574 13.6796 5.42799 13.5598 5.35674C13.44 5.2855 13.3415 5.18338 13.2747 5.06106L13.2907 5.07706ZM37.3357 5.15806C37.1561 5.06238 37.0213 4.89981 36.9607 4.70554C36.9001 4.51127 36.9184 4.30093 37.0117 4.12006C37.1072 3.94026 37.2697 3.80533 37.464 3.74449C37.6583 3.68366 37.8687 3.70183 38.0497 3.79506C38.4227 3.99006 38.5697 4.46106 38.3747 4.83406C38.3078 4.95653 38.2092 5.05874 38.0892 5.13C37.9692 5.20125 37.8322 5.23892 37.6927 5.23906C37.5674 5.23747 37.4445 5.2041 37.3357 5.14206V5.15806ZM18.9367 2.59506C18.8237 2.18906 19.0827 1.76706 19.4887 1.65406C19.6844 1.60093 19.8932 1.62737 20.0695 1.7276C20.2457 1.82783 20.3752 1.99371 20.4297 2.18906C20.4554 2.28709 20.4615 2.38925 20.4477 2.48966C20.4339 2.59006 20.4004 2.68676 20.3491 2.77418C20.2978 2.86161 20.2298 2.93805 20.1489 2.99912C20.068 3.06019 19.9758 3.10468 19.8777 3.13006C19.8777 3.13006 19.7477 3.16306 19.6837 3.16306C19.5144 3.16243 19.3498 3.10665 19.2151 3.00416C19.0803 2.90167 18.9825 2.75806 18.9367 2.59506ZM31.7547 3.03306C31.6563 3.01017 31.5635 2.96798 31.4816 2.90895C31.3997 2.84993 31.3303 2.77523 31.2775 2.68919C31.2247 2.60315 31.1894 2.50748 31.1738 2.40773C31.1582 2.30797 31.1626 2.20611 31.1867 2.10806C31.2096 2.00972 31.2518 1.91691 31.3108 1.83499C31.3698 1.75308 31.4445 1.6837 31.5305 1.63086C31.6166 1.57803 31.7123 1.5428 31.812 1.52721C31.9118 1.51163 32.0136 1.51599 32.1117 1.54006C32.5337 1.63706 32.7767 2.06006 32.6797 2.46506C32.6396 2.63257 32.5439 2.78154 32.4082 2.88762C32.2726 2.9937 32.1049 3.05061 31.9327 3.04906C31.9327 3.04906 31.8027 3.04906 31.7547 3.01706V3.03306ZM25.0377 1.58906C25.0377 1.16706 25.3777 0.810059 25.7997 0.810059C26.2217 0.810059 26.5627 1.15006 26.5797 1.57306C26.5797 1.99406 26.2387 2.35106 25.8167 2.35106C25.7165 2.35119 25.6173 2.33158 25.5248 2.29334C25.4322 2.25511 25.3481 2.199 25.2772 2.12823C25.2064 2.05746 25.1501 1.97341 25.1118 1.88089C25.0734 1.78838 25.0537 1.68921 25.0537 1.58906H25.0377ZM36.0767 50.0361C35.9766 50.0367 35.8774 50.0168 35.7853 49.9778C35.6931 49.9388 35.6099 49.8814 35.5407 49.8091C35.3972 49.6674 35.3155 49.4747 35.3137 49.2731V49.1271C35.3137 49.0781 35.3457 49.0301 35.3627 48.9811C35.3627 48.9321 35.4107 48.8841 35.4277 48.8511C35.4597 48.8031 35.4757 48.7711 35.5247 48.7381C35.615 48.6487 35.7259 48.5827 35.8475 48.546C35.9692 48.5092 36.0979 48.5027 36.2227 48.5271C36.2707 48.5271 36.3197 48.5591 36.3687 48.5761C36.4167 48.5921 36.4487 48.6241 36.4987 48.6401C36.5467 48.6731 36.5787 48.7051 36.6117 48.7381C36.6437 48.7701 36.6767 48.8031 36.7087 48.8511C36.7368 48.8909 36.7587 48.9347 36.7737 48.9811L36.8227 49.1271V49.2731C36.8231 49.373 36.8032 49.4719 36.7642 49.5639C36.7252 49.6559 36.6679 49.739 36.5957 49.8081C36.5627 49.8411 36.5307 49.8731 36.4817 49.9061C36.4418 49.9341 36.398 49.956 36.3517 49.9711L36.2057 50.0191H36.0597L36.0767 50.0361ZM28.0857 42.1671H23.9487C23.7577 42.1655 23.5742 42.0933 23.4333 41.9644C23.2924 41.8356 23.2042 41.6591 23.1857 41.4691L21.0447 17.9271C21.0296 17.7763 21.0601 17.6245 21.1323 17.4913C21.2045 17.3581 21.3151 17.2496 21.4497 17.1801C21.5827 17.1088 21.7339 17.0786 21.8841 17.0932C22.0343 17.1078 22.1768 17.1666 22.2937 17.2621L23.9157 18.5431L25.5387 17.2621C25.6738 17.1518 25.8428 17.0916 26.0172 17.0916C26.1915 17.0916 26.3606 17.1518 26.4957 17.2621L28.1187 18.5431L29.7407 17.2621C29.8575 17.1666 30.0001 17.1078 30.1503 17.0932C30.3005 17.0786 30.4516 17.1088 30.5847 17.1801C30.7169 17.2524 30.8255 17.3613 30.8973 17.4938C30.9692 17.6263 31.0012 17.7768 30.9897 17.9271L28.8487 41.4691C28.8302 41.6591 28.742 41.8356 28.6011 41.9644C28.4602 42.0933 28.2766 42.1655 28.0857 42.1671ZM24.6457 40.6251H27.3877L29.3027 19.5651L28.6047 20.1171C28.4696 20.2273 28.3005 20.2875 28.1262 20.2875C27.9518 20.2875 27.7828 20.2273 27.6477 20.1171L26.0257 18.8361L24.4027 20.1171C24.2676 20.2273 24.0985 20.2875 23.9242 20.2875C23.7498 20.2875 23.5808 20.2273 23.4457 20.1171L22.7477 19.5661L24.6627 40.6261H24.6467L24.6457 40.6251Z" fill="#61E061"/>
</g>
</g>
<defs>
<clipPath id="clip0_1_363">
<rect width="52" height="52" fill="white" transform="translate(0.438904 0.810059)"/>
</clipPath>
<clipPath id="clip1_1_363">
<rect width="52" height="52" fill="white" transform="translate(0.438904 0.810059)"/>
</clipPath>
</defs>
</svg>
