<svg width="41" height="41" viewBox="0 0 41 41" fill="none" xmlns="http://www.w3.org/2000/svg">
<g clip-path="url(#clip0_1_388)">
<path d="M8.3739 8.81006C6.7219 8.81006 5.3739 7.42506 5.3739 5.72606V3.89406C5.3739 2.19506 6.7219 0.810059 8.3739 0.810059C10.0259 0.810059 11.3739 2.19506 11.3739 3.89406V5.72606C11.3739 7.42506 10.0259 8.81006 8.3739 8.81006ZM8.3739 1.70406C7.1999 1.70406 6.2439 2.68706 6.2439 3.89406V5.72606C6.2439 6.93306 7.1999 7.91606 8.3739 7.91606C9.5479 7.91606 10.5039 6.93306 10.5039 5.72606V3.89406C10.5039 2.68706 9.5479 1.70406 8.3739 1.70406ZM11.9779 30.8101H4.8179C4.5599 30.8101 4.3479 30.6101 4.3479 30.3661V21.9461C2.1499 21.7461 1.4339 20.1261 1.3739 19.2391V13.9581C1.3739 11.1181 3.8189 8.81006 6.8289 8.81006H20.9019C21.0309 8.81006 21.1599 8.86506 21.2539 8.95406C21.3479 9.04306 21.3839 9.17606 21.3719 9.29806C21.2069 10.6411 20.1369 13.1811 17.1979 13.1811H12.4479V30.3551C12.4479 30.5991 12.2369 30.7991 11.9779 30.7991V30.8101ZM5.2879 29.9341H11.5079V12.7601C11.5079 12.6381 11.5549 12.5271 11.6489 12.4491C11.7394 12.3665 11.8565 12.3193 11.9789 12.3161H17.1989C19.3729 12.3161 20.1019 10.5741 20.3369 9.69806H6.8289C4.3369 9.69806 2.3149 11.6061 2.3149 13.9581V19.2051C2.3259 19.3611 2.5029 20.8361 4.3599 21.0581V14.3581C4.3599 14.1131 4.5719 13.9131 4.8299 13.9131C5.0899 13.9131 5.2999 14.1131 5.2999 14.3571V29.9231L5.2889 29.9331L5.2879 29.9341Z" fill="#C75EEB"/>
<path d="M7.8739 30.81C7.5989 30.81 7.3739 30.616 7.3739 30.379V21.241C7.3739 21.004 7.5989 20.81 7.8739 20.81C8.1489 20.81 8.3739 21.004 8.3739 21.241V30.379C8.3739 30.616 8.1489 30.81 7.8739 30.81ZM31.8969 18.81H15.0589C14.7959 18.81 14.5819 18.618 14.5819 18.383C14.5819 18.148 14.7959 17.956 15.0589 17.956H31.4189V4.66404H12.8509C12.5889 4.66404 12.3739 4.47204 12.3739 4.23804C12.3739 4.00304 12.5889 3.81104 12.8509 3.81104H31.8969C32.1589 3.81104 32.3739 4.00304 32.3739 4.23804V18.374C32.3739 18.608 32.1589 18.8 31.8969 18.8V18.81ZM20.8739 30.81C20.5989 30.81 20.3739 30.614 20.3739 30.375V19.245C20.3739 19.005 20.5989 18.81 20.8739 18.81C21.1489 18.81 21.3739 19.006 21.3739 19.245V30.375C21.3739 30.615 21.1489 30.81 20.8739 30.81Z" fill="#C75EEB"/>
<path d="M24.9159 30.8001C24.826 30.8007 24.7377 30.7753 24.6619 30.7269C24.5862 30.6784 24.526 30.609 24.4889 30.5271L20.3739 20.4311L16.2579 30.5271C16.2095 30.6349 16.1221 30.7206 16.0133 30.7669C15.9045 30.8133 15.7823 30.8169 15.6709 30.7771C15.4399 30.6901 15.3129 30.4401 15.4049 30.2231L19.9479 19.0821C19.9851 19.0005 20.0451 18.9314 20.1207 18.8831C20.1963 18.8349 20.2842 18.8095 20.3739 18.8101C20.5589 18.8101 20.7319 18.9191 20.8009 19.0821L25.3429 30.2221C25.4359 30.4401 25.3199 30.6901 25.0779 30.7771C25.0266 30.7973 24.9721 30.8085 24.9169 30.8101L24.9159 30.8001Z" fill="#C75EEB"/>
</g>
<defs>
<clipPath id="clip0_1_388">
<rect width="40" height="40" fill="white" transform="translate(0.873901 0.810059)"/>
</clipPath>
</defs>
</svg>
