<svg width="41" height="41" viewBox="0 0 41 41" fill="none" xmlns="http://www.w3.org/2000/svg">
<g clip-path="url(#clip0_1_379)">
<path d="M20.5069 31.7541L11.0479 31.7811C10.3709 31.7831 9.8229 31.2941 9.8209 30.6941L9.8109 26.9561L6.7869 26.9651C5.6569 26.9681 4.9509 26.7611 4.4859 26.2891C3.9839 25.7721 3.7859 24.9731 3.8379 23.5901C3.8809 22.2901 3.8609 21.8621 3.8029 21.0171C3.7929 20.8351 3.7739 20.6351 3.7639 20.4071L2.4199 20.3841C1.8539 20.3671 1.3799 20.1141 1.1199 19.6781C0.991722 19.4607 0.923701 19.2131 0.922822 18.9607C0.921943 18.7084 0.988239 18.4603 1.1149 18.2421C2.4709 15.7281 3.0429 14.6721 3.3659 14.0621C3.62896 13.5714 3.74362 13.0148 3.6959 12.4601C3.6759 12.2141 3.6659 11.9781 3.6559 11.7691C3.5929 8.88605 4.4859 6.44705 6.2229 4.69605C8.0909 2.81705 10.9169 1.78005 14.1709 1.77205C22.8049 1.74805 25.8889 7.12205 25.9039 12.1601C25.9099 14.2701 25.2759 16.3001 24.0669 18.0401C22.5059 20.2901 21.6789 22.9571 21.6869 25.7671L21.6969 29.3051V29.3871L21.7009 30.6601C21.7029 31.2601 21.1569 31.7521 20.4799 31.7541H20.5079H20.5069ZM14.1829 2.63605C11.1599 2.64505 8.5659 3.58905 6.8559 5.30305C5.2559 6.90805 4.4829 9.07505 4.5369 11.7571C4.5369 11.9481 4.5469 12.1671 4.5669 12.3851C4.63282 13.1055 4.48684 13.8295 4.1469 14.4681C3.8229 15.0781 3.2519 16.1351 1.8959 18.6581C1.84241 18.7487 1.81353 18.8517 1.81212 18.957C1.81072 19.0622 1.83684 19.166 1.8879 19.2581C1.9899 19.4301 2.1849 19.5301 2.4449 19.5381L4.1889 19.5611C4.29908 19.5604 4.40519 19.6027 4.48485 19.6788C4.56451 19.7549 4.6115 19.859 4.6159 19.9691C4.6359 20.3781 4.6559 20.6961 4.6749 20.9781C4.7329 21.8511 4.7619 22.2881 4.7099 23.6331C4.6669 24.7431 4.7989 25.3791 5.1149 25.7051C5.3939 25.9861 5.9129 26.1211 6.7749 26.1191L10.2439 26.1091C10.4849 26.1091 10.6799 26.2991 10.6809 26.5351L10.6929 30.7091C10.6929 30.8191 10.8329 30.9361 11.0359 30.9351L20.4949 30.9091C20.6989 30.9091 20.8379 30.7891 20.8369 30.6801L20.8339 29.4251V29.3531L20.8239 25.7881C20.8149 22.8051 21.6879 19.9651 23.3499 17.5691C24.452 15.9891 25.0394 14.1074 25.0319 12.1811C25.0149 6.27905 20.8599 2.63505 14.1829 2.65405V2.63605Z" fill="#4EBFE9"/>
</g>
<defs>
<clipPath id="clip0_1_379">
<rect width="40" height="40" fill="white" transform="translate(0.873901 0.810059)"/>
</clipPath>
</defs>
</svg>
