<svg width="332" height="242" viewBox="0 0 332 242" fill="none" xmlns="http://www.w3.org/2000/svg">
<path d="M191.662 80.197H216.581C236.077 80.197 251.883 96.0022 251.883 115.499V121.209" stroke="#EDE9FF" stroke-width="10.902" stroke-linecap="square"/>
<path d="M191.662 25.1676H275.244C297.895 25.1676 316.257 43.5295 316.257 66.18V73.9672" stroke="#EDE9FF" stroke-width="10.902" stroke-linecap="round"/>
<path d="M197.891 25.1677H98.734C76.0835 25.1677 57.7216 43.5296 57.7216 66.1802V121.209" stroke="#EDE9FF" stroke-width="10.902" stroke-linecap="square"/>
<path d="M251.879 155.473L251.879 171.567C251.879 191.063 236.074 206.868 216.577 206.868L174.007 206.868" stroke="#EDE9FF" stroke-width="10.902" stroke-linecap="square"/>
<path d="M57.7225 155.473L57.7225 165.856C57.7225 188.507 76.0844 206.868 98.735 206.868L129.884 206.868" stroke="#EDE9FF" stroke-width="10.902" stroke-linecap="square"/>
<g filter="url(#filter0_d_1_4091)">
<rect x="100.289" y="59.9504" width="100.195" height="41.5316" rx="20.7658" fill="#F5F9FF"/>
<rect x="100.549" y="60.21" width="99.6758" height="41.0124" rx="20.5062" stroke="#E2ECEF" stroke-width="0.519145"/>
</g>
<g filter="url(#filter1_d_1_4091)">
<rect x="174.527" y="4.40186" width="100.195" height="41.5316" rx="20.7658" fill="#F5F9FF"/>
<rect x="174.787" y="4.66143" width="99.6758" height="41.0124" rx="20.5062" stroke="#E2ECEF" stroke-width="0.519145"/>
</g>
<g filter="url(#filter2_d_1_4091)">
<rect x="100.289" y="182.469" width="100.195" height="41.5316" rx="20.7658" fill="#F5F9FF"/>
<rect x="100.549" y="182.728" width="99.6758" height="41.0124" rx="20.5062" stroke="#E2ECEF" stroke-width="0.519145"/>
</g>
<g filter="url(#filter3_d_1_4091)">
<rect x="201.525" y="115.499" width="100.195" height="41.5316" rx="20.7658" fill="#F5F9FF"/>
<rect x="201.785" y="115.758" width="99.6758" height="41.0124" rx="20.5062" stroke="#E2ECEF" stroke-width="0.519145"/>
</g>
<g filter="url(#filter4_d_1_4091)">
<rect x="10.9978" y="115.499" width="90.8503" height="41.5316" rx="20.7658" fill="#F5F9FF"/>
<rect x="11.2574" y="115.758" width="90.3312" height="41.0124" rx="20.5062" stroke="#E2ECEF" stroke-width="0.519145"/>
</g>
<path d="M145.031 84.0296C144.632 84.0296 144.279 83.9439 143.972 83.7726C143.671 83.6013 143.438 83.3599 143.271 83.0484C143.105 82.7317 143.022 82.3683 143.022 81.9582V80.5254C143.022 80.1152 143.105 79.7544 143.271 79.4429C143.443 79.1263 143.682 78.8823 143.988 78.7109C144.299 78.5396 144.658 78.454 145.062 78.454H145.888C146.277 78.454 146.62 78.537 146.916 78.7032C147.212 78.8693 147.44 79.1029 147.601 79.404C147.767 79.6999 147.85 80.0451 147.85 80.4397H146.791C146.791 80.1282 146.708 79.879 146.542 79.6921C146.376 79.5 146.158 79.404 145.888 79.404H145.062C144.772 79.404 144.538 79.513 144.362 79.7311C144.185 79.9439 144.097 80.2243 144.097 80.5721V81.9115C144.097 82.2593 144.183 82.5422 144.354 82.7603C144.525 82.9731 144.751 83.0795 145.031 83.0795H145.872C146.147 83.0795 146.371 82.9731 146.542 82.7603C146.719 82.5474 146.807 82.2671 146.807 81.9193H147.866C147.866 82.3398 147.783 82.711 147.617 83.0328C147.451 83.3495 147.217 83.5961 146.916 83.7726C146.615 83.9439 146.267 84.0296 145.872 84.0296H145.031ZM150.463 84.0296C150.053 84.0296 149.689 83.9439 149.372 83.7726C149.061 83.5961 148.817 83.3521 148.64 83.0406C148.469 82.7239 148.383 82.3579 148.383 81.9426V80.5409C148.383 80.1256 148.469 79.7622 148.64 79.4507C148.817 79.134 149.061 78.8901 149.372 78.7187C149.689 78.5422 150.053 78.454 150.463 78.454H151.288C151.698 78.454 152.059 78.5422 152.371 78.7187C152.687 78.8901 152.931 79.134 153.103 79.4507C153.279 79.7622 153.367 80.1256 153.367 80.5409V81.9426C153.367 82.3579 153.279 82.7239 153.103 83.0406C152.931 83.3521 152.687 83.5961 152.371 83.7726C152.059 83.9439 151.698 84.0296 151.288 84.0296H150.463ZM151.288 83.0795C151.589 83.0795 151.831 82.9705 152.012 82.7525C152.199 82.5344 152.293 82.2489 152.293 81.8959V80.5877C152.293 80.2346 152.199 79.9491 152.012 79.7311C151.831 79.513 151.589 79.404 151.288 79.404H150.463C150.162 79.404 149.918 79.513 149.731 79.7311C149.549 79.9491 149.458 80.2346 149.458 80.5877V81.8959C149.458 82.2489 149.549 82.5344 149.731 82.7525C149.918 82.9705 150.162 83.0795 150.463 83.0795H151.288ZM154.174 78.5163H155.132L157.749 82.223V78.5163H158.8V83.9673H157.842L155.226 80.2606V83.9673H154.174V78.5163ZM161.103 79.4507H159.374V78.5163H163.906V79.4507H162.178V83.9673H161.103V79.4507ZM165.242 83.9673C165.018 83.9673 164.837 83.8998 164.696 83.7648C164.556 83.6298 164.486 83.4533 164.486 83.2353V78.5163H168.645V79.4507H165.561V80.7122H168.411V81.6467H165.561V83.0328H168.645V83.9673H165.242ZM170.778 81.1873L168.955 78.5163H170.178L171.393 80.3073L172.608 78.5163H173.822L172 81.1873L173.9 83.9673H172.678L171.393 82.0672L170.1 83.9673H168.878L170.778 81.1873ZM175.704 79.4507H173.975V78.5163H178.507V79.4507H176.779V83.9673H175.704V79.4507ZM180.76 84.0296C180.35 84.0296 179.986 83.9439 179.669 83.7726C179.358 83.5961 179.114 83.3521 178.937 83.0406C178.766 82.7239 178.68 82.3579 178.68 81.9426V80.5409C178.68 80.1256 178.766 79.7622 178.937 79.4507C179.114 79.134 179.358 78.8901 179.669 78.7187C179.986 78.5422 180.35 78.454 180.76 78.454H181.585C181.995 78.454 182.356 78.5422 182.667 78.7187C182.984 78.8901 183.228 79.134 183.399 79.4507C183.576 79.7622 183.664 80.1256 183.664 80.5409V81.9426C183.664 82.3579 183.576 82.7239 183.399 83.0406C183.228 83.3521 182.984 83.5961 182.667 83.7726C182.356 83.9439 181.995 84.0296 181.585 84.0296H180.76ZM181.585 83.0795C181.886 83.0795 182.128 82.9705 182.309 82.7525C182.496 82.5344 182.59 82.2489 182.59 81.8959V80.5877C182.59 80.2346 182.496 79.9491 182.309 79.7311C182.128 79.513 181.886 79.404 181.585 79.404H180.76C180.459 79.404 180.215 79.513 180.028 79.7311C179.846 79.9491 179.755 80.2346 179.755 80.5877V81.8959C179.755 82.2489 179.846 82.5344 180.028 82.7525C180.215 82.9705 180.459 83.0795 180.76 83.0795H181.585Z" fill="#1E7291"/>
<path d="M221.346 27.962C220.946 27.962 220.593 27.8763 220.286 27.705C219.985 27.5337 219.752 27.2923 219.586 26.9808C219.419 26.6641 219.336 26.3007 219.336 25.8906V24.4577C219.336 24.0476 219.419 23.6868 219.586 23.3753C219.757 23.0586 219.996 22.8146 220.302 22.6433C220.614 22.472 220.972 22.3863 221.377 22.3863H222.202C222.591 22.3863 222.934 22.4694 223.23 22.6355C223.526 22.8017 223.754 23.0353 223.915 23.3364C224.081 23.6323 224.164 23.9775 224.164 24.3721H223.105C223.105 24.0606 223.022 23.8114 222.856 23.6245C222.69 23.4324 222.472 23.3364 222.202 23.3364H221.377C221.086 23.3364 220.852 23.4454 220.676 23.6634C220.499 23.8763 220.411 24.1566 220.411 24.5045V25.8438C220.411 26.1917 220.497 26.4746 220.668 26.6926C220.839 26.9055 221.065 27.0119 221.346 27.0119H222.187C222.462 27.0119 222.685 26.9055 222.856 26.6926C223.033 26.4798 223.121 26.1995 223.121 25.8516H224.18C224.18 26.2721 224.097 26.6433 223.931 26.9652C223.765 27.2819 223.531 27.5285 223.23 27.705C222.929 27.8763 222.581 27.962 222.187 27.962H221.346ZM226.777 27.962C226.367 27.962 226.003 27.8763 225.687 27.705C225.375 27.5285 225.131 27.2845 224.955 26.973C224.783 26.6563 224.698 26.2903 224.698 25.875V24.4733C224.698 24.058 224.783 23.6946 224.955 23.3831C225.131 23.0664 225.375 22.8224 225.687 22.6511C226.003 22.4746 226.367 22.3863 226.777 22.3863H227.602C228.012 22.3863 228.373 22.4746 228.685 22.6511C229.001 22.8224 229.245 23.0664 229.417 23.3831C229.593 23.6946 229.681 24.058 229.681 24.4733V25.875C229.681 26.2903 229.593 26.6563 229.417 26.973C229.245 27.2845 229.001 27.5285 228.685 27.705C228.373 27.8763 228.012 27.962 227.602 27.962H226.777ZM227.602 27.0119C227.903 27.0119 228.145 26.9029 228.327 26.6849C228.513 26.4668 228.607 26.1813 228.607 25.8283V24.52C228.607 24.167 228.513 23.8815 228.327 23.6634C228.145 23.4454 227.903 23.3364 227.602 23.3364H226.777C226.476 23.3364 226.232 23.4454 226.045 23.6634C225.863 23.8815 225.772 24.167 225.772 24.52V25.8283C225.772 26.1813 225.863 26.4668 226.045 26.6849C226.232 26.9029 226.476 27.0119 226.777 27.0119H227.602ZM230.489 22.4486H231.446L234.063 26.1553V22.4486H235.114V27.8997H234.156L231.54 24.193V27.8997H230.489V22.4486ZM237.417 23.3831H235.689V22.4486H240.221V23.3831H238.492V27.8997H237.417V23.3831ZM241.556 27.8997C241.333 27.8997 241.151 27.8322 241.011 27.6972C240.871 27.5622 240.8 27.3857 240.8 27.1677V22.4486H244.959V23.3831H241.875V24.6446H244.725V25.5791H241.875V26.9652H244.959V27.8997H241.556ZM247.092 25.1196L245.27 22.4486H246.492L247.707 24.2397L248.922 22.4486H250.137L248.314 25.1196L250.215 27.8997H248.992L247.707 25.9996L246.414 27.8997H245.192L247.092 25.1196ZM252.018 23.3831H250.29V22.4486H254.822V23.3831H253.093V27.8997H252.018V23.3831ZM257.074 27.962C256.664 27.962 256.3 27.8763 255.984 27.705C255.672 27.5285 255.428 27.2845 255.252 26.973C255.08 26.6563 254.995 26.2903 254.995 25.875V24.4733C254.995 24.058 255.08 23.6946 255.252 23.3831C255.428 23.0664 255.672 22.8224 255.984 22.6511C256.3 22.4746 256.664 22.3863 257.074 22.3863H257.899C258.309 22.3863 258.67 22.4746 258.982 22.6511C259.298 22.8224 259.542 23.0664 259.714 23.3831C259.89 23.6946 259.978 24.058 259.978 24.4733V25.875C259.978 26.2903 259.89 26.6563 259.714 26.973C259.542 27.2845 259.298 27.5285 258.982 27.705C258.67 27.8763 258.309 27.962 257.899 27.962H257.074ZM257.899 27.0119C258.2 27.0119 258.442 26.9029 258.623 26.6849C258.81 26.4668 258.904 26.1813 258.904 25.8283V24.52C258.904 24.167 258.81 23.8815 258.623 23.6634C258.442 23.4454 258.2 23.3364 257.899 23.3364H257.074C256.773 23.3364 256.529 23.4454 256.342 23.6634C256.16 23.8815 256.069 24.167 256.069 24.52V25.8283C256.069 26.1813 256.16 26.4668 256.342 26.6849C256.529 26.9029 256.773 27.0119 257.074 27.0119H257.899Z" fill="#1E7291"/>
<path d="M146.677 206.548C146.106 206.548 145.659 206.389 145.337 206.073C145.015 205.751 144.854 205.304 144.854 204.733H145.913C145.913 205.003 145.981 205.216 146.116 205.372C146.256 205.522 146.448 205.598 146.692 205.598H147.557C147.785 205.598 147.969 205.551 148.109 205.457C148.255 205.359 148.327 205.229 148.327 205.068V204.803C148.327 204.549 148.141 204.391 147.767 204.328L146.334 204.087C145.867 204.009 145.511 203.861 145.267 203.643C145.028 203.42 144.909 203.137 144.909 202.794V202.358C144.909 202.083 144.982 201.842 145.127 201.634C145.277 201.421 145.488 201.258 145.758 201.143C146.033 201.029 146.35 200.972 146.708 200.972H147.588C147.925 200.972 148.224 201.042 148.483 201.182C148.743 201.322 148.943 201.52 149.083 201.774C149.228 202.023 149.301 202.314 149.301 202.646H148.242C148.242 202.428 148.182 202.254 148.063 202.125C147.943 201.99 147.785 201.922 147.588 201.922H146.708C146.49 201.922 146.313 201.969 146.178 202.062C146.048 202.156 145.984 202.28 145.984 202.436V202.646C145.984 202.906 146.163 203.067 146.521 203.129L147.946 203.378C148.418 203.461 148.779 203.609 149.028 203.822C149.278 204.03 149.402 204.3 149.402 204.632V205.146C149.402 205.421 149.324 205.665 149.168 205.878C149.018 206.091 148.805 206.257 148.53 206.376C148.255 206.491 147.936 206.548 147.572 206.548H146.677ZM152.075 206.548C151.665 206.548 151.302 206.462 150.985 206.291C150.673 206.114 150.429 205.87 150.253 205.559C150.082 205.242 149.996 204.876 149.996 204.461V203.059C149.996 202.644 150.082 202.28 150.253 201.969C150.429 201.652 150.673 201.408 150.985 201.237C151.302 201.06 151.665 200.972 152.075 200.972H152.9C153.311 200.972 153.671 201.06 153.983 201.237C154.3 201.408 154.544 201.652 154.715 201.969C154.891 202.28 154.98 202.644 154.98 203.059V204.461C154.98 204.876 154.891 205.242 154.715 205.559C154.544 205.87 154.3 206.114 153.983 206.291C153.671 206.462 153.311 206.548 152.9 206.548H152.075ZM152.9 205.598C153.202 205.598 153.443 205.489 153.625 205.271C153.812 205.053 153.905 204.767 153.905 204.414V203.106C153.905 202.753 153.812 202.467 153.625 202.249C153.443 202.031 153.202 201.922 152.9 201.922H152.075C151.774 201.922 151.53 202.031 151.343 202.249C151.161 202.467 151.07 202.753 151.07 203.106V204.414C151.07 204.767 151.161 205.053 151.343 205.271C151.53 205.489 151.774 205.598 152.075 205.598H152.9ZM156.542 206.485C156.314 206.485 156.129 206.42 155.989 206.291C155.854 206.156 155.787 205.979 155.787 205.761V201.034H156.861V205.551H159.82V206.485H156.542ZM162.09 206.548C161.706 206.548 161.368 206.467 161.077 206.306C160.787 206.14 160.561 205.909 160.4 205.613C160.239 205.317 160.159 204.975 160.159 204.585V201.034H161.233V204.554C161.233 204.866 161.311 205.117 161.467 205.309C161.628 205.502 161.835 205.598 162.09 205.598H162.915C163.175 205.598 163.385 205.502 163.546 205.309C163.707 205.117 163.787 204.866 163.787 204.554V201.034H164.862V204.585C164.862 204.975 164.782 205.317 164.621 205.613C164.46 205.909 164.231 206.14 163.935 206.306C163.639 206.467 163.299 206.548 162.915 206.548H162.09ZM168.434 206.548L168.302 206.844H168.38C168.587 206.844 168.754 206.903 168.878 207.023C169.003 207.142 169.065 207.298 169.065 207.49V207.646C169.065 207.884 168.972 208.074 168.785 208.214C168.598 208.359 168.351 208.432 168.045 208.432H167.29V207.794H167.959C168.053 207.794 168.128 207.775 168.185 207.739C168.242 207.708 168.271 207.666 168.271 207.614V207.498C168.271 207.451 168.247 207.412 168.201 207.381C168.154 207.355 168.092 207.342 168.014 207.342H167.5V206.937L167.663 206.548H167.648C167.248 206.548 166.895 206.462 166.589 206.291C166.288 206.119 166.054 205.878 165.888 205.566C165.722 205.25 165.639 204.886 165.639 204.476V203.043C165.639 202.633 165.722 202.272 165.888 201.961C166.059 201.644 166.298 201.4 166.604 201.229C166.916 201.058 167.274 200.972 167.679 200.972H168.504C168.894 200.972 169.236 201.055 169.532 201.221C169.828 201.387 170.057 201.621 170.218 201.922C170.384 202.218 170.467 202.563 170.467 202.958H169.408C169.408 202.646 169.325 202.397 169.158 202.21C168.992 202.018 168.774 201.922 168.504 201.922H167.679C167.388 201.922 167.155 202.031 166.978 202.249C166.802 202.462 166.713 202.742 166.713 203.09V204.43C166.713 204.777 166.799 205.06 166.97 205.278C167.142 205.491 167.367 205.598 167.648 205.598H168.489C168.764 205.598 168.987 205.491 169.158 205.278C169.335 205.065 169.423 204.785 169.423 204.437H170.482C170.482 204.858 170.399 205.229 170.233 205.551C170.067 205.868 169.833 206.114 169.532 206.291C169.231 206.462 168.883 206.548 168.489 206.548H168.434ZM174.196 205.216H172.156L171.673 206.485H170.552L172.686 201.034H173.168C173.506 201.034 173.734 201.19 173.854 201.502L175.793 206.485H174.671L174.196 205.216ZM172.444 204.313H173.908L173.184 202.35H173.176L172.444 204.313ZM173.675 200.559C173.555 200.559 173.449 200.533 173.355 200.481C173.262 200.43 173.161 200.357 173.052 200.263C172.922 200.144 172.821 200.084 172.748 200.084H172.701C172.634 200.084 172.579 200.123 172.538 200.201C172.496 200.274 172.475 200.372 172.475 200.497H171.704C171.699 200.149 171.782 199.869 171.954 199.656C172.125 199.443 172.356 199.337 172.647 199.337H172.693C172.818 199.337 172.927 199.365 173.02 199.422C173.114 199.474 173.223 199.55 173.348 199.648C173.467 199.757 173.555 199.812 173.612 199.812H173.659C173.721 199.812 173.771 199.775 173.807 199.703C173.848 199.625 173.869 199.524 173.869 199.399H174.64C174.64 199.747 174.557 200.027 174.391 200.24C174.225 200.453 174.002 200.559 173.721 200.559H173.675ZM178.053 206.548C177.642 206.548 177.279 206.462 176.962 206.291C176.651 206.114 176.407 205.87 176.23 205.559C176.059 205.242 175.973 204.876 175.973 204.461V203.059C175.973 202.644 176.059 202.28 176.23 201.969C176.407 201.652 176.651 201.408 176.962 201.237C177.279 201.06 177.642 200.972 178.053 200.972H178.878C179.288 200.972 179.649 201.06 179.96 201.237C180.277 201.408 180.521 201.652 180.692 201.969C180.869 202.28 180.957 202.644 180.957 203.059V204.461C180.957 204.876 180.869 205.242 180.692 205.559C180.521 205.87 180.277 206.114 179.96 206.291C179.649 206.462 179.288 206.548 178.878 206.548H178.053ZM178.878 205.598C179.179 205.598 179.42 205.489 179.602 205.271C179.789 205.053 179.883 204.767 179.883 204.414V203.106C179.883 202.753 179.789 202.467 179.602 202.249C179.42 202.031 179.179 201.922 178.878 201.922H178.053C177.751 201.922 177.507 202.031 177.321 202.249C177.139 202.467 177.048 202.753 177.048 203.106V204.414C177.048 204.767 177.139 205.053 177.321 205.271C177.507 205.489 177.751 205.598 178.053 205.598H178.878Z" fill="#1E7291"/>
<path d="M243.259 134.065H246.133C246.449 134.065 246.73 134.127 246.974 134.251C247.218 134.371 247.407 134.545 247.542 134.773C247.677 134.996 247.745 135.253 247.745 135.544V136.268C247.745 136.569 247.674 136.837 247.534 137.07C247.394 137.299 247.197 137.478 246.942 137.608C246.693 137.732 246.403 137.795 246.07 137.795H244.334V139.516H243.259V134.065ZM246.055 136.86C246.236 136.86 246.384 136.803 246.499 136.689C246.613 136.569 246.67 136.414 246.67 136.222V135.591C246.67 135.409 246.618 135.266 246.514 135.163C246.416 135.054 246.283 134.999 246.117 134.999H244.334V136.86H246.055ZM248.339 134.065H251.236C251.708 134.065 252.087 134.192 252.373 134.446C252.664 134.701 252.809 135.035 252.809 135.451V135.996C252.809 136.266 252.731 136.502 252.575 136.704C252.425 136.902 252.204 137.052 251.913 137.156V137.172C252.079 137.281 252.204 137.405 252.287 137.545C252.375 137.686 252.461 137.88 252.544 138.13L252.98 139.516H251.867L251.454 138.223C251.386 138 251.293 137.834 251.174 137.725C251.054 137.616 250.906 137.561 250.73 137.561H249.414V139.516H248.339V134.065ZM251.033 136.634C251.251 136.634 251.423 136.577 251.547 136.463C251.672 136.344 251.734 136.191 251.734 136.004V135.497C251.734 135.347 251.688 135.227 251.594 135.139C251.501 135.046 251.376 134.999 251.22 134.999H249.414V136.634H251.033ZM255.51 139.578C255.1 139.578 254.736 139.492 254.419 139.321C254.108 139.144 253.864 138.9 253.687 138.589C253.516 138.272 253.431 137.906 253.431 137.491V136.089C253.431 135.674 253.516 135.311 253.687 134.999C253.864 134.682 254.108 134.438 254.419 134.267C254.736 134.091 255.1 134.002 255.51 134.002H256.335C256.745 134.002 257.106 134.091 257.418 134.267C257.734 134.438 257.978 134.682 258.15 134.999C258.326 135.311 258.414 135.674 258.414 136.089V137.491C258.414 137.906 258.326 138.272 258.15 138.589C257.978 138.9 257.734 139.144 257.418 139.321C257.106 139.492 256.745 139.578 256.335 139.578H255.51ZM256.335 138.628C256.636 138.628 256.878 138.519 257.059 138.301C257.246 138.083 257.34 137.797 257.34 137.444V136.136C257.34 135.783 257.246 135.497 257.059 135.279C256.878 135.061 256.636 134.952 256.335 134.952H255.51C255.209 134.952 254.965 135.061 254.778 135.279C254.596 135.497 254.505 135.783 254.505 136.136V137.444C254.505 137.797 254.596 138.083 254.778 138.301C254.965 138.519 255.209 138.628 255.51 138.628H256.335ZM259.977 139.516C259.753 139.516 259.572 139.448 259.432 139.313C259.291 139.178 259.221 139.002 259.221 138.784V134.065H261.931C262.424 134.065 262.819 134.181 263.115 134.415C263.416 134.649 263.567 134.963 263.567 135.357V135.747C263.567 135.918 263.522 136.081 263.434 136.237C263.351 136.393 263.232 136.52 263.076 136.619V136.627C263.325 136.715 263.525 136.858 263.676 137.055C263.831 137.252 263.909 137.473 263.909 137.717V138.122C263.909 138.547 263.753 138.887 263.442 139.142C263.136 139.391 262.72 139.516 262.196 139.516H259.977ZM261.931 136.323C262.097 136.323 262.232 136.271 262.336 136.167C262.44 136.058 262.492 135.915 262.492 135.739V135.474C262.492 135.329 262.437 135.215 262.328 135.131C262.219 135.043 262.074 134.999 261.892 134.999H260.296V136.323H261.931ZM262.118 138.581C262.347 138.581 262.523 138.537 262.648 138.449C262.772 138.355 262.835 138.226 262.835 138.059V137.717C262.835 137.566 262.78 137.444 262.671 137.351C262.562 137.257 262.417 137.211 262.235 137.211H260.296V138.581H262.118ZM265.353 139.516C265.125 139.516 264.94 139.451 264.8 139.321C264.665 139.186 264.598 139.009 264.598 138.791V134.065H265.672V138.581H268.632V139.516H265.353ZM269.931 139.516C269.708 139.516 269.526 139.448 269.386 139.313C269.246 139.178 269.176 139.002 269.176 138.784V134.065H273.334V134.999H270.25V136.261H273.101V137.195H270.25V138.581H273.334V139.516H269.931ZM274.066 134.065H275.023L276.807 137.304L278.551 134.065H279.509V139.516H278.458V136.066L277.313 138.137C277.235 138.277 277.155 138.379 277.071 138.441C276.994 138.498 276.903 138.527 276.799 138.527H276.503L275.117 136.066V139.516H274.066V134.065ZM283.669 138.246H281.629L281.146 139.516H280.025L282.158 134.065H282.641C282.979 134.065 283.207 134.22 283.326 134.532L285.265 139.516H284.144L283.669 138.246ZM281.917 137.343H283.381L282.657 135.381H282.649L281.917 137.343Z" fill="#1E7291"/>
<path d="M58.5149 134.999H56.7862V134.065H61.3183V134.999H59.5896V139.516H58.5149V134.999ZM62.6534 139.516C62.4302 139.516 62.2485 139.448 62.1083 139.313C61.9681 139.178 61.898 139.002 61.898 138.784V134.065H66.0564V134.999H62.9727V136.261H65.8228V137.195H62.9727V138.581H66.0564V139.516H62.6534ZM68.6656 139.578C68.2555 139.578 67.8921 139.492 67.5754 139.321C67.264 139.144 67.02 138.9 66.8434 138.589C66.6721 138.272 66.5865 137.906 66.5865 137.491V136.089C66.5865 135.674 66.6721 135.311 66.8434 134.999C67.02 134.682 67.264 134.438 67.5754 134.267C67.8921 134.091 68.2555 134.002 68.6656 134.002H69.4911C69.9012 134.002 70.262 134.091 70.5735 134.267C70.8902 134.438 71.1342 134.682 71.3055 134.999C71.482 135.311 71.5703 135.674 71.5703 136.089V137.491C71.5703 137.906 71.482 138.272 71.3055 138.589C71.1342 138.9 70.8902 139.144 70.5735 139.321C70.262 139.492 69.9012 139.578 69.4911 139.578H68.6656ZM69.4911 138.628C69.7922 138.628 70.0336 138.519 70.2153 138.301C70.4022 138.083 70.4956 137.797 70.4956 137.444V136.136C70.4956 135.783 70.4022 135.497 70.2153 135.279C70.0336 135.061 69.7922 134.952 69.4911 134.952H68.6656C68.3645 134.952 68.1205 135.061 67.9337 135.279C67.752 135.497 67.6611 135.783 67.6611 136.136V137.444C67.6611 137.797 67.752 138.083 67.9337 138.301C68.1205 138.519 68.3645 138.628 68.6656 138.628H69.4911ZM72.3773 134.065H75.2741C75.7465 134.065 76.1255 134.192 76.411 134.446C76.7017 134.701 76.8471 135.035 76.8471 135.451V135.996C76.8471 136.266 76.7692 136.502 76.6135 136.704C76.4629 136.902 76.2423 137.052 75.9516 137.156V137.172C76.1177 137.281 76.2423 137.405 76.3254 137.545C76.4136 137.686 76.4993 137.88 76.5823 138.13L77.0184 139.516H75.9049L75.4921 138.223C75.4246 138 75.3312 137.834 75.2118 137.725C75.0924 137.616 74.9444 137.561 74.7679 137.561H73.4519V139.516H72.3773V134.065ZM75.0716 136.634C75.2897 136.634 75.461 136.577 75.5856 136.463C75.7102 136.344 75.7725 136.191 75.7725 136.004V135.497C75.7725 135.347 75.7257 135.227 75.6323 135.139C75.5389 135.046 75.4143 134.999 75.2585 134.999H73.4519V136.634H75.0716ZM77.7328 134.065H78.8074V139.516H77.7328V134.065ZM83.0454 138.246H81.0051L80.5223 139.516H79.401L81.5347 134.065H82.0175C82.3549 134.065 82.5833 134.22 82.7027 134.532L84.6418 139.516H83.5204L83.0454 138.246ZM81.2933 137.343H82.7573L82.0331 135.381H82.0253L81.2933 137.343Z" fill="#1E7291"/>
<path fill-rule="evenodd" clip-rule="evenodd" d="M122.442 66.6992C115.159 70.8472 112.664 80.0346 116.869 87.2194C121.073 94.4042 130.386 96.8661 137.668 92.7182L122.442 66.6992Z" fill="#C75EEB"/>
<path d="M201.26 37.1078C207.998 37.1078 213.46 31.6457 213.46 24.9079C213.46 18.1701 207.998 12.708 201.26 12.708C194.523 12.708 189.061 18.1701 189.061 24.9079C189.061 31.6457 194.523 37.1078 201.26 37.1078Z" fill="#FAC900"/>
<path fill-rule="evenodd" clip-rule="evenodd" d="M127.29 193.89L116.389 212.579H138.193L127.29 193.89Z" fill="#4EBFE9"/>
<path fill-rule="evenodd" clip-rule="evenodd" d="M315.996 84.3501L331.31 66.18L300.681 66.18L315.996 84.3501Z" fill="#EDE9FF"/>
<g clip-path="url(#clip0_1_4091)">
<path fill-rule="evenodd" clip-rule="evenodd" d="M44.8703 124.843H31.6324L25.0134 136.524L31.6324 148.204H44.8703L51.4898 136.524L44.8703 124.843Z" fill="#61E061"/>
</g>
<g clip-path="url(#clip1_1_4091)">
<path d="M236.828 126.92H218.139V145.609H236.828V126.92Z" fill="#F6543B"/>
</g>
<defs>
<filter id="filter0_d_1_4091" x="89.906" y="56.3164" width="120.961" height="62.2974" filterUnits="userSpaceOnUse" color-interpolation-filters="sRGB">
<feFlood flood-opacity="0" result="BackgroundImageFix"/>
<feColorMatrix in="SourceAlpha" type="matrix" values="0 0 0 0 0 0 0 0 0 0 0 0 0 0 0 0 0 0 127 0" result="hardAlpha"/>
<feOffset dy="6.74888"/>
<feGaussianBlur stdDeviation="5.19145"/>
<feComposite in2="hardAlpha" operator="out"/>
<feColorMatrix type="matrix" values="0 0 0 0 0.8797 0 0 0 0 0.855 0 0 0 0 0.95 0 0 0 0.6 0"/>
<feBlend mode="normal" in2="BackgroundImageFix" result="effect1_dropShadow_1_4091"/>
<feBlend mode="normal" in="SourceGraphic" in2="effect1_dropShadow_1_4091" result="shape"/>
</filter>
<filter id="filter1_d_1_4091" x="164.144" y="0.767842" width="120.961" height="62.2974" filterUnits="userSpaceOnUse" color-interpolation-filters="sRGB">
<feFlood flood-opacity="0" result="BackgroundImageFix"/>
<feColorMatrix in="SourceAlpha" type="matrix" values="0 0 0 0 0 0 0 0 0 0 0 0 0 0 0 0 0 0 127 0" result="hardAlpha"/>
<feOffset dy="6.74888"/>
<feGaussianBlur stdDeviation="5.19145"/>
<feComposite in2="hardAlpha" operator="out"/>
<feColorMatrix type="matrix" values="0 0 0 0 0.8797 0 0 0 0 0.855 0 0 0 0 0.95 0 0 0 0.6 0"/>
<feBlend mode="normal" in2="BackgroundImageFix" result="effect1_dropShadow_1_4091"/>
<feBlend mode="normal" in="SourceGraphic" in2="effect1_dropShadow_1_4091" result="shape"/>
</filter>
<filter id="filter2_d_1_4091" x="89.906" y="178.834" width="120.961" height="62.2974" filterUnits="userSpaceOnUse" color-interpolation-filters="sRGB">
<feFlood flood-opacity="0" result="BackgroundImageFix"/>
<feColorMatrix in="SourceAlpha" type="matrix" values="0 0 0 0 0 0 0 0 0 0 0 0 0 0 0 0 0 0 127 0" result="hardAlpha"/>
<feOffset dy="6.74888"/>
<feGaussianBlur stdDeviation="5.19145"/>
<feComposite in2="hardAlpha" operator="out"/>
<feColorMatrix type="matrix" values="0 0 0 0 0.8797 0 0 0 0 0.855 0 0 0 0 0.95 0 0 0 0.6 0"/>
<feBlend mode="normal" in2="BackgroundImageFix" result="effect1_dropShadow_1_4091"/>
<feBlend mode="normal" in="SourceGraphic" in2="effect1_dropShadow_1_4091" result="shape"/>
</filter>
<filter id="filter3_d_1_4091" x="191.142" y="111.865" width="120.961" height="62.2974" filterUnits="userSpaceOnUse" color-interpolation-filters="sRGB">
<feFlood flood-opacity="0" result="BackgroundImageFix"/>
<feColorMatrix in="SourceAlpha" type="matrix" values="0 0 0 0 0 0 0 0 0 0 0 0 0 0 0 0 0 0 127 0" result="hardAlpha"/>
<feOffset dy="6.74888"/>
<feGaussianBlur stdDeviation="5.19145"/>
<feComposite in2="hardAlpha" operator="out"/>
<feColorMatrix type="matrix" values="0 0 0 0 0.8797 0 0 0 0 0.855 0 0 0 0 0.95 0 0 0 0.6 0"/>
<feBlend mode="normal" in2="BackgroundImageFix" result="effect1_dropShadow_1_4091"/>
<feBlend mode="normal" in="SourceGraphic" in2="effect1_dropShadow_1_4091" result="shape"/>
</filter>
<filter id="filter4_d_1_4091" x="0.614909" y="111.865" width="111.616" height="62.2974" filterUnits="userSpaceOnUse" color-interpolation-filters="sRGB">
<feFlood flood-opacity="0" result="BackgroundImageFix"/>
<feColorMatrix in="SourceAlpha" type="matrix" values="0 0 0 0 0 0 0 0 0 0 0 0 0 0 0 0 0 0 127 0" result="hardAlpha"/>
<feOffset dy="6.74888"/>
<feGaussianBlur stdDeviation="5.19145"/>
<feComposite in2="hardAlpha" operator="out"/>
<feColorMatrix type="matrix" values="0 0 0 0 0.8797 0 0 0 0 0.855 0 0 0 0 0.95 0 0 0 0.6 0"/>
<feBlend mode="normal" in2="BackgroundImageFix" result="effect1_dropShadow_1_4091"/>
<feBlend mode="normal" in="SourceGraphic" in2="effect1_dropShadow_1_4091" result="shape"/>
</filter>
<clipPath id="clip0_1_4091">
<rect width="26.4764" height="23.3615" fill="white" transform="translate(25.0135 124.843)"/>
</clipPath>
<clipPath id="clip1_1_4091">
<rect width="18.6892" height="18.6892" fill="white" transform="translate(218.139 126.92)"/>
</clipPath>
</defs>
</svg>
