<svg width="594" height="432" viewBox="0 0 594 432" fill="none" xmlns="http://www.w3.org/2000/svg">
<path d="M342.945 142.934H387.678C422.678 142.934 451.049 171.306 451.049 206.305V216.555" stroke="#EDE9FF" stroke-width="19.5704" stroke-linecap="square"/>
<path d="M342.945 44.1499H492.985C533.647 44.1499 566.609 77.1102 566.609 117.772V131.75" stroke="#EDE9FF" stroke-width="19.5704" stroke-linecap="round"/>
<path d="M354.127 44.1499H176.128C135.469 44.1499 102.506 77.1102 102.506 117.772V216.555M451.042 278.064V306.954C451.042 341.952 422.67 370.324 387.671 370.324H311.252M102.508 278.064V296.702C102.508 337.362 135.47 370.324 176.13 370.324H232.046" stroke="#EDE9FF" stroke-width="19.5704" stroke-linecap="square"/>
<g filter="url(#filter0_d_2028_368)">
<path d="M321.504 106.588H216.197C195.609 106.588 178.919 123.278 178.919 143.865C178.919 164.453 195.609 181.143 216.197 181.143H321.504C342.092 181.143 358.782 164.453 358.782 143.865C358.782 123.278 342.092 106.588 321.504 106.588Z" fill="#F5F9FF"/>
<path d="M321.506 107.055H216.197C195.867 107.055 179.386 123.535 179.386 143.865C179.386 164.195 195.867 180.676 216.197 180.676H321.506C341.836 180.676 358.317 164.195 358.317 143.865C358.317 123.535 341.836 107.055 321.506 107.055Z" stroke="#E2ECEF" stroke-width="0.931669"/>
</g>
<g filter="url(#filter1_d_2028_368)">
<path d="M454.771 6.87231H349.463C328.876 6.87231 312.186 23.562 312.186 44.1499C312.186 64.7377 328.876 81.4274 349.463 81.4274H454.771C475.359 81.4274 492.048 64.7377 492.048 44.1499C492.048 23.562 475.359 6.87231 454.771 6.87231Z" fill="#F5F9FF"/>
<path d="M454.773 7.33716H349.463C329.133 7.33716 312.653 23.8179 312.653 44.148C312.653 64.478 329.133 80.9588 349.463 80.9588H454.773C475.103 80.9588 491.583 64.478 491.583 44.148C491.583 23.8179 475.103 7.33716 454.773 7.33716Z" stroke="#E2ECEF" stroke-width="0.931669"/>
</g>
<g filter="url(#filter2_d_2028_368)">
<path d="M321.504 326.523H216.197C195.609 326.523 178.919 343.213 178.919 363.8C178.919 384.388 195.609 401.078 216.197 401.078H321.504C342.092 401.078 358.782 384.388 358.782 363.8C358.782 343.213 342.092 326.523 321.504 326.523Z" fill="#F5F9FF"/>
<path d="M321.506 326.99H216.197C195.867 326.99 179.386 343.47 179.386 363.8C179.386 384.13 195.867 400.611 216.197 400.611H321.506C341.836 400.611 358.317 384.13 358.317 363.8C358.317 343.47 341.836 326.99 321.506 326.99Z" stroke="#E2ECEF" stroke-width="0.931669"/>
</g>
<g filter="url(#filter3_d_2028_368)">
<path d="M503.236 206.305H397.928C377.34 206.305 360.651 222.995 360.651 243.583C360.651 264.171 377.34 280.86 397.928 280.86H503.236C523.823 280.86 540.513 264.171 540.513 243.583C540.513 222.995 523.823 206.305 503.236 206.305Z" fill="#F5F9FF"/>
<path d="M503.237 206.77H397.928C377.598 206.77 361.117 223.251 361.117 243.581C361.117 263.911 377.598 280.392 397.928 280.392H503.237C523.567 280.392 540.048 263.911 540.048 243.581C540.048 223.251 523.567 206.77 503.237 206.77Z" stroke="#E2ECEF" stroke-width="0.931669"/>
</g>
<g filter="url(#filter4_d_2028_368)">
<path d="M144.441 206.305H55.9086C35.3208 206.305 18.6311 222.995 18.6311 243.583C18.6311 264.171 35.3208 280.86 55.9086 280.86H144.441C165.028 280.86 181.718 264.171 181.718 243.583C181.718 222.995 165.028 206.305 144.441 206.305Z" fill="#F5F9FF"/>
<path d="M144.442 206.77H55.9087C35.5786 206.77 19.0978 223.251 19.0978 243.581C19.0978 263.911 35.5786 280.392 55.9087 280.392H144.442C164.772 280.392 181.253 263.911 181.253 243.581C181.253 223.251 164.772 206.77 144.442 206.77Z" stroke="#E2ECEF" stroke-width="0.931669"/>
</g>
<path d="M259.237 149.814C258.574 149.828 257.919 149.668 257.336 149.351C256.8 149.048 256.363 148.597 256.078 148.052C255.771 147.446 255.617 146.774 255.631 146.095V143.523C255.631 142.787 255.78 142.14 256.078 141.58C256.371 141.027 256.818 140.571 257.365 140.266C257.923 139.959 258.567 139.805 259.293 139.805H260.775C261.474 139.805 262.089 139.954 262.621 140.252C263.152 140.55 263.561 140.97 263.85 141.508C264.148 142.042 264.297 142.661 264.297 143.37H262.396C262.396 142.81 262.247 142.363 261.949 142.027C261.805 141.858 261.625 141.724 261.422 141.635C261.218 141.545 260.997 141.503 260.775 141.51H259.293C259.052 141.503 258.813 141.552 258.594 141.654C258.376 141.756 258.185 141.908 258.036 142.097C257.718 142.48 257.56 142.982 257.56 143.607V146.012C257.56 146.635 257.715 147.143 258.022 147.535C258.329 147.917 258.734 148.109 259.237 148.109H260.747C260.978 148.115 261.208 148.066 261.417 147.966C261.626 147.866 261.808 147.718 261.949 147.535C262.267 147.152 262.425 146.65 262.425 146.027H264.326C264.326 146.781 264.177 147.445 263.879 148.025C263.581 148.592 263.161 149.035 262.621 149.353C262.047 149.669 261.401 149.828 260.747 149.814H259.237ZM268.988 149.814C268.307 149.827 267.633 149.668 267.03 149.351C266.479 149.042 266.025 148.588 265.716 148.037C265.399 147.429 265.24 146.752 265.254 146.066V143.551C265.254 142.806 265.409 142.153 265.716 141.595C266.033 141.026 266.471 140.588 267.03 140.281C267.63 139.956 268.305 139.792 268.988 139.805H270.469C271.205 139.805 271.853 139.963 272.413 140.281C272.98 140.586 273.418 141.026 273.727 141.595C274.043 142.153 274.201 142.806 274.201 143.551V146.066C274.201 146.813 274.043 147.47 273.727 148.039C273.423 148.593 272.967 149.048 272.413 149.351C271.815 149.668 271.146 149.827 270.469 149.813L268.988 149.814ZM270.469 148.109C270.716 148.118 270.962 148.069 271.188 147.967C271.413 147.865 271.612 147.712 271.769 147.52C272.104 147.129 272.273 146.617 272.273 145.984V143.636C272.273 143.002 272.104 142.489 271.769 142.097C271.612 141.906 271.413 141.753 271.188 141.651C270.962 141.55 270.716 141.501 270.469 141.51H268.988C268.739 141.502 268.491 141.551 268.264 141.653C268.036 141.754 267.834 141.906 267.674 142.097C267.347 142.489 267.184 143.002 267.184 143.636V145.984C267.184 146.617 267.347 147.129 267.674 147.52C267.834 147.711 268.036 147.863 268.264 147.965C268.491 148.067 268.739 148.115 268.988 148.107L270.469 148.109ZM275.65 139.916H277.37L282.067 146.571V139.916H283.954V149.701H282.234L277.538 143.047V149.701H275.65V139.916ZM288.088 141.595H284.984V139.916H293.12V141.595H290.018V149.701H288.088V141.595ZM295.518 149.701C295.339 149.709 295.16 149.681 294.992 149.618C294.824 149.556 294.669 149.461 294.538 149.339C294.412 149.215 294.314 149.067 294.249 148.903C294.184 148.739 294.154 148.564 294.161 148.387V139.916H301.627V141.595H296.091V143.858H301.207V145.537H296.091V148.025H301.627V149.701H295.518ZM305.456 144.711L302.184 139.918H304.379L306.56 143.131L308.741 139.918H310.92L307.65 144.709L311.06 149.7H308.867L306.56 146.289L304.239 149.7H302.045L305.456 144.711ZM314.299 141.595H311.195V139.916H319.331V141.595H316.229V149.701H314.299V141.595ZM323.375 149.814C322.694 149.827 322.02 149.668 321.416 149.351C320.866 149.042 320.411 148.588 320.102 148.037C319.786 147.429 319.627 146.752 319.641 146.066V143.551C319.641 142.806 319.795 142.153 320.102 141.595C320.42 141.026 320.858 140.588 321.416 140.281C322.017 139.956 322.692 139.792 323.375 139.805H324.856C325.592 139.805 326.24 139.963 326.798 140.281C327.367 140.586 327.805 141.026 328.112 141.595C328.43 142.153 328.588 142.806 328.588 143.551V146.066C328.588 146.813 328.43 147.47 328.112 148.039C327.809 148.594 327.353 149.049 326.798 149.351C326.201 149.668 325.532 149.827 324.856 149.813L323.375 149.814ZM324.856 148.109C325.103 148.118 325.349 148.069 325.575 147.967C325.8 147.865 325.999 147.712 326.156 147.52C326.491 147.129 326.66 146.617 326.66 145.984V143.636C326.66 143.002 326.491 142.489 326.156 142.097C325.999 141.906 325.8 141.753 325.575 141.651C325.349 141.55 325.103 141.501 324.856 141.51H323.375C323.126 141.502 322.878 141.551 322.65 141.653C322.423 141.754 322.221 141.906 322.061 142.097C321.734 142.489 321.571 143.002 321.571 143.636V145.984C321.571 146.617 321.734 147.129 322.061 147.52C322.221 147.711 322.423 147.863 322.65 147.965C322.878 148.067 323.126 148.115 323.375 148.107L324.856 148.109ZM396.232 49.1655C395.514 49.1655 394.88 49.0111 394.331 48.7041C393.795 48.4013 393.358 47.9499 393.072 47.4045C392.766 46.7986 392.612 46.1268 392.625 45.4478V42.8754C392.625 42.1394 392.774 41.4913 393.072 40.9313C393.365 40.3781 393.811 39.9216 394.358 39.6172C394.951 39.3017 395.615 39.1429 396.287 39.1559H397.768C398.469 39.1559 399.082 39.3049 399.614 39.6047C400.145 39.9027 400.556 40.3227 400.845 40.8613C401.143 41.3926 401.292 42.0119 401.292 42.721H399.391C399.391 42.1627 399.242 41.7157 398.942 41.3782C398.798 41.2093 398.618 41.075 398.415 40.9855C398.211 40.896 397.99 40.8535 397.768 40.8613H396.287C396.046 40.8537 395.807 40.9029 395.588 41.0049C395.37 41.1069 395.178 41.2587 395.029 41.4483C394.713 41.8306 394.553 42.335 394.553 42.958V45.3634C394.553 45.9881 394.708 46.4944 395.015 46.8857C395.324 47.268 395.727 47.4601 396.232 47.4601H397.742C397.973 47.4657 398.202 47.4166 398.411 47.3168C398.62 47.217 398.802 47.0693 398.942 46.8857C399.26 46.5051 399.418 46.0007 399.418 45.3778H401.319C401.319 46.1317 401.17 46.7977 400.872 47.3758C400.574 47.9448 400.154 48.3864 399.614 48.7041C399.041 49.0198 398.395 49.1789 397.742 49.1655H396.232ZM405.981 49.1655C405.245 49.1655 404.594 49.0111 404.024 48.7041C403.473 48.3961 403.018 47.9413 402.71 47.3901C402.394 46.7822 402.235 46.1044 402.249 45.4191V42.9023C402.249 42.1573 402.403 41.5057 402.71 40.9456C403.026 40.3766 403.464 39.9404 404.024 39.6316C404.594 39.3139 405.245 39.1559 405.981 39.1559H407.464C408.2 39.1559 408.846 39.3139 409.406 39.6316C409.975 39.9386 410.413 40.3766 410.72 40.9456C411.036 41.5057 411.196 42.1573 411.196 42.9023V45.4191C411.196 46.164 411.036 46.8211 410.72 47.3901C410.417 47.9451 409.961 48.4012 409.406 48.7041C408.809 49.021 408.14 49.1798 407.464 49.1655H405.981ZM407.464 47.4601C407.711 47.4689 407.957 47.4205 408.182 47.3187C408.408 47.2169 408.607 47.0644 408.764 46.8731C409.099 46.4818 409.266 45.9684 409.266 45.3347V42.9867C409.266 42.353 409.099 41.8396 408.764 41.4483C408.607 41.2571 408.408 41.1047 408.182 41.0028C407.957 40.901 407.711 40.8526 407.464 40.8613H405.981C405.732 40.8533 405.484 40.902 405.257 41.0037C405.029 41.1054 404.827 41.2574 404.667 41.4483C404.34 41.8396 404.179 42.353 404.179 42.9867V45.3347C404.179 45.9684 404.34 46.4818 404.667 46.8731C404.827 47.064 405.029 47.216 405.257 47.3177C405.484 47.4193 405.732 47.468 405.981 47.4601H407.464ZM412.645 39.2672H414.364L419.06 45.9217V39.2672H420.947V49.0542H419.229L414.531 42.4015V49.0542H412.645V39.2708V39.2672ZM425.083 40.9456H421.979V39.269H430.115V40.9456H427.011V49.0542H425.083V40.9456ZM432.511 49.0542C432.332 49.0614 432.153 49.0328 431.986 48.9703C431.818 48.9077 431.664 48.8124 431.533 48.6898C431.407 48.5664 431.308 48.418 431.244 48.2541C431.179 48.0902 431.149 47.9145 431.156 47.7384V39.2672H438.62V40.9456H433.084V43.2111H438.2V44.8877H433.084V47.3758H438.62V49.0524L432.511 49.0542ZM442.449 44.0638L439.178 39.2672H441.374L443.553 42.484L445.734 39.269H447.915L444.645 44.062L448.055 49.0524H445.86L443.553 45.6417L441.234 49.0524H439.038L442.449 44.062V44.0638ZM451.294 40.9456H448.19V39.269H456.325V40.9456H453.222V49.0542H451.294V40.9456ZM460.368 49.1655C459.632 49.1655 458.98 49.0111 458.411 48.7041C457.86 48.3961 457.405 47.9413 457.097 47.3901C456.781 46.7822 456.622 46.1044 456.636 45.4191V42.9023C456.636 42.1573 456.79 41.5057 457.097 40.9456C457.413 40.3766 457.851 39.9404 458.411 39.6316C458.98 39.3139 459.632 39.1559 460.368 39.1559H461.851C462.587 39.1559 463.233 39.3139 463.793 39.6316C464.362 39.9386 464.8 40.3766 465.107 40.9456C465.423 41.5057 465.583 42.1573 465.583 42.9023V45.4191C465.583 46.164 465.423 46.8211 465.107 47.3901C464.804 47.9451 464.348 48.4012 463.793 48.7041C463.196 49.021 462.527 49.1798 461.851 49.1655H460.368ZM461.851 47.4601C462.098 47.4689 462.344 47.4205 462.569 47.3187C462.795 47.2169 462.994 47.0644 463.15 46.8731C463.486 46.4818 463.653 45.9684 463.653 45.3347V42.9867C463.653 42.353 463.486 41.8396 463.15 41.4483C462.994 41.2571 462.795 41.1047 462.569 41.0028C462.344 40.901 462.098 40.8526 461.851 40.8613H460.368C460.119 40.8533 459.871 40.902 459.644 41.0037C459.416 41.1054 459.214 41.2574 459.054 41.4483C458.727 41.8396 458.566 42.353 458.566 42.9867V45.3347C458.566 45.9684 458.727 46.4818 459.054 46.8731C459.214 47.064 459.416 47.216 459.644 47.3177C459.871 47.4193 460.119 47.468 460.368 47.4601H461.851ZM262.192 369.75C261.167 369.75 260.364 369.464 259.786 368.897C259.208 368.319 258.919 367.516 258.919 366.491H260.82C260.82 366.976 260.942 367.358 261.185 367.638C261.436 367.908 261.781 368.044 262.219 368.044H263.771C264.181 368.044 264.511 367.96 264.762 367.791C264.883 367.719 264.982 367.617 265.051 367.494C265.12 367.371 265.155 367.233 265.154 367.093V366.617C265.154 366.161 264.82 365.877 264.148 365.764L261.576 365.332C260.738 365.192 260.099 364.926 259.661 364.535C259.451 364.341 259.285 364.105 259.174 363.842C259.063 363.58 259.01 363.296 259.018 363.011V362.228C259.018 361.734 259.149 361.302 259.409 360.928C259.679 360.546 260.057 360.253 260.542 360.047C261.036 359.842 261.605 359.74 262.247 359.74H263.827C264.432 359.74 264.969 359.866 265.434 360.117C265.9 360.368 266.259 360.724 266.511 361.18C266.771 361.627 266.902 362.149 266.902 362.745H265.001C265.001 362.354 264.893 362.041 264.68 361.81C264.573 361.69 264.442 361.595 264.294 361.532C264.147 361.469 263.987 361.439 263.827 361.445H262.247C261.856 361.445 261.538 361.53 261.296 361.697C261.186 361.77 261.097 361.87 261.036 361.988C260.975 362.105 260.945 362.236 260.948 362.368V362.745C260.948 363.212 261.269 363.501 261.912 363.612L264.47 364.059C265.317 364.208 265.965 364.474 266.412 364.856C266.861 365.229 267.083 365.714 267.083 366.31V367.233C267.083 367.726 266.943 368.164 266.663 368.547C266.394 368.929 266.012 369.227 265.518 369.441C264.971 369.657 264.386 369.762 263.798 369.75H262.192ZM271.882 369.75C271.146 369.75 270.494 369.595 269.925 369.288C269.374 368.98 268.92 368.525 268.611 367.974C268.294 367.366 268.136 366.688 268.15 366.003V363.486C268.15 362.741 268.304 362.088 268.611 361.53C268.927 360.961 269.365 360.523 269.925 360.216C270.494 359.898 271.146 359.74 271.882 359.74H273.363C274.101 359.74 274.747 359.898 275.307 360.216C275.876 360.523 276.314 360.961 276.621 361.53C276.937 362.088 277.097 362.741 277.097 363.486V366.003C277.097 366.748 276.937 367.405 276.621 367.974C276.318 368.529 275.862 368.985 275.307 369.288C274.709 369.605 274.04 369.764 273.363 369.75H271.882ZM273.363 368.044C273.61 368.053 273.856 368.005 274.082 367.903C274.308 367.801 274.507 367.649 274.664 367.457C275 367.066 275.167 366.552 275.167 365.919V363.571C275.167 362.937 275 362.424 274.664 362.032C274.507 361.841 274.308 361.688 274.082 361.586C273.856 361.485 273.61 361.436 273.363 361.445H271.882C271.633 361.437 271.385 361.486 271.157 361.588C270.93 361.689 270.728 361.841 270.568 362.032C270.241 362.424 270.078 362.937 270.078 363.571V365.919C270.078 366.552 270.241 367.066 270.568 367.457C270.728 367.648 270.93 367.8 271.157 367.902C271.385 368.003 271.633 368.052 271.882 368.044H273.363ZM279.901 369.636C279.537 369.653 279.181 369.528 278.908 369.288C278.786 369.163 278.691 369.013 278.629 368.85C278.566 368.686 278.538 368.512 278.545 368.337V359.851H280.473V367.96H285.785V369.636H279.901ZM289.86 369.75C289.227 369.763 288.6 369.613 288.042 369.315C287.527 369.024 287.106 368.592 286.826 368.071C286.528 367.502 286.38 366.867 286.394 366.226V359.851H288.322V366.17C288.322 366.73 288.462 367.181 288.742 367.525C288.875 367.692 289.046 367.826 289.24 367.916C289.434 368.006 289.646 368.05 289.86 368.044H291.341C291.808 368.044 292.185 367.872 292.474 367.525C292.763 367.181 292.906 366.73 292.906 366.17V359.851H294.836V366.226C294.836 366.926 294.692 367.54 294.403 368.071C294.114 368.602 293.703 369.017 293.172 369.315C292.608 369.612 291.978 369.762 291.341 369.75H289.86ZM301.248 369.75L301.011 370.281H301.151C301.523 370.281 301.823 370.387 302.045 370.602C302.157 370.71 302.245 370.841 302.303 370.985C302.361 371.13 302.387 371.285 302.381 371.441V371.721C302.387 371.919 302.345 372.115 302.257 372.293C302.169 372.471 302.039 372.625 301.878 372.74C301.543 373 301.099 373.132 300.55 373.132H299.195V371.986H300.396C300.537 371.992 300.678 371.958 300.801 371.887C300.904 371.832 300.956 371.756 300.956 371.663V371.455C300.956 371.371 300.913 371.3 300.83 371.245C300.726 371.194 300.61 371.17 300.494 371.175H299.572V370.448L299.864 369.75H299.837C299.119 369.75 298.486 369.595 297.936 369.288C297.4 368.985 296.963 368.533 296.678 367.987C296.371 367.381 296.217 366.709 296.231 366.03V363.458C296.231 362.722 296.38 362.074 296.678 361.515C296.985 360.946 297.414 360.508 297.963 360.201C298.557 359.886 299.221 359.727 299.893 359.74H301.374C302.074 359.74 302.688 359.889 303.219 360.187C303.751 360.485 304.162 360.905 304.451 361.445C304.749 361.977 304.898 362.596 304.898 363.305H302.997C302.997 362.745 302.848 362.298 302.548 361.962C302.404 361.793 302.223 361.659 302.02 361.57C301.817 361.48 301.596 361.438 301.374 361.445H299.893C299.652 361.438 299.412 361.487 299.194 361.589C298.975 361.691 298.784 361.843 298.635 362.032C298.319 362.415 298.159 362.917 298.159 363.542V365.947C298.159 366.57 298.313 367.078 298.62 367.47C298.929 367.852 299.333 368.044 299.837 368.044H301.347C301.578 368.05 301.808 368.001 302.016 367.901C302.225 367.801 302.407 367.653 302.548 367.47C302.866 367.087 303.024 366.585 303.024 365.96H304.925C304.925 366.716 304.776 367.382 304.478 367.96C304.18 368.529 303.76 368.97 303.219 369.288C302.646 369.604 302.001 369.763 301.347 369.75H301.248ZM311.592 367.358H307.93L307.063 369.636H305.05L308.881 359.851H309.746C310.353 359.851 310.762 360.131 310.978 360.691L314.459 369.636H312.444L311.592 367.358ZM308.447 365.737H311.075L309.775 362.214H309.761L308.447 365.737ZM310.656 358.999C310.456 359.002 310.258 358.954 310.082 358.858C309.888 358.747 309.705 358.616 309.538 358.467C309.305 358.254 309.123 358.146 308.992 358.146H308.908C308.788 358.146 308.689 358.216 308.615 358.356C308.532 358.52 308.493 358.703 308.502 358.887H307.118C307.109 358.262 307.258 357.76 307.567 357.378C307.715 357.191 307.904 357.042 308.121 356.942C308.337 356.843 308.573 356.796 308.811 356.805H308.894C309.118 356.805 309.314 356.855 309.481 356.957C309.649 357.051 309.845 357.187 310.069 357.363C310.283 357.559 310.441 357.658 310.543 357.658H310.628C310.739 357.658 310.829 357.591 310.893 357.462C310.974 357.292 311.012 357.104 311.005 356.916H312.389C312.389 357.541 312.24 358.044 311.942 358.426C311.802 358.611 311.62 358.76 311.41 358.859C311.201 358.959 310.971 359.007 310.739 358.999H310.656ZM318.516 369.75C317.834 369.763 317.161 369.604 316.557 369.288C316.007 368.979 315.552 368.524 315.243 367.974C314.926 367.366 314.768 366.688 314.782 366.003V363.486C314.782 362.741 314.936 362.088 315.243 361.53C315.561 360.961 315.999 360.523 316.557 360.216C317.126 359.898 317.778 359.74 318.516 359.74H319.997C320.733 359.74 321.381 359.898 321.939 360.216C322.508 360.523 322.946 360.961 323.253 361.53C323.571 362.088 323.729 362.741 323.729 363.486V366.003C323.729 366.748 323.571 367.405 323.253 367.974C322.95 368.529 322.494 368.985 321.939 369.288C321.341 369.605 320.673 369.764 319.997 369.75H318.516ZM319.997 368.044C320.244 368.053 320.49 368.004 320.715 367.903C320.94 367.801 321.139 367.648 321.296 367.457C321.632 367.066 321.801 366.552 321.801 365.919V363.571C321.801 362.937 321.632 362.424 321.296 362.032C321.139 361.841 320.94 361.689 320.715 361.587C320.49 361.485 320.244 361.437 319.997 361.445H318.516C318.266 361.437 318.019 361.486 317.791 361.587C317.563 361.689 317.362 361.841 317.202 362.032C316.875 362.424 316.711 362.937 316.711 363.571V365.919C316.711 366.552 316.875 367.066 317.202 367.457C317.535 367.848 317.973 368.044 318.516 368.044H319.997ZM435.568 239.634H440.728C441.295 239.634 441.799 239.745 442.237 239.967C442.675 240.183 443.015 240.495 443.257 240.904C443.499 241.305 443.621 241.766 443.621 242.289V243.588C443.621 244.129 443.494 244.61 443.243 245.028C442.991 245.439 442.638 245.76 442.18 245.994C441.691 246.226 441.155 246.341 440.615 246.329H437.498V249.419H435.568V239.634ZM440.588 244.651C440.734 244.656 440.881 244.632 441.018 244.579C441.155 244.526 441.279 244.446 441.385 244.344C441.594 244.116 441.704 243.815 441.692 243.506V242.373C441.692 242.046 441.598 241.789 441.412 241.605C441.321 241.507 441.211 241.429 441.088 241.379C440.965 241.328 440.832 241.304 440.699 241.31H437.498V244.651H440.588ZM444.688 239.634H449.888C450.735 239.634 451.416 239.862 451.929 240.317C452.452 240.775 452.712 241.375 452.712 242.122V243.1C452.712 243.585 452.572 244.008 452.292 244.371C452.022 244.726 451.626 244.996 451.103 245.182V245.211C451.401 245.407 451.626 245.629 451.775 245.881C451.933 246.134 452.087 246.482 452.236 246.931L453.019 249.419H451.021L450.279 247.098C450.157 246.697 449.99 246.399 449.777 246.204C449.559 246.007 449.273 245.901 448.98 245.909H446.617V249.419H444.688V239.634ZM449.524 244.245C449.915 244.245 450.224 244.143 450.446 243.938C450.557 243.832 450.645 243.704 450.702 243.562C450.76 243.42 450.787 243.268 450.782 243.114V242.204C450.782 241.935 450.699 241.719 450.531 241.562C450.442 241.476 450.336 241.41 450.221 241.367C450.105 241.324 449.982 241.304 449.859 241.31H446.617V244.245H449.524ZM457.56 249.53C456.824 249.53 456.171 249.376 455.602 249.069C455.052 248.759 454.597 248.305 454.288 247.755C453.972 247.147 453.814 246.469 453.828 245.784V243.267C453.828 242.522 453.981 241.87 454.288 241.31C454.606 240.741 455.044 240.303 455.602 239.996C456.203 239.672 456.878 239.508 457.56 239.52H459.041C459.777 239.52 460.425 239.68 460.986 239.996C461.553 240.303 461.991 240.741 462.3 241.31C462.616 241.87 462.773 242.522 462.773 243.267V245.784C462.773 246.529 462.616 247.186 462.3 247.755C461.995 248.309 461.539 248.764 460.986 249.069C460.387 249.385 459.718 249.544 459.041 249.53H457.56ZM459.041 247.825C459.289 247.834 459.535 247.785 459.76 247.683C459.986 247.582 460.184 247.429 460.341 247.238C460.677 246.846 460.846 246.333 460.846 245.699V243.351C460.846 242.718 460.677 242.204 460.341 241.813C460.184 241.621 459.986 241.469 459.76 241.367C459.535 241.265 459.289 241.217 459.041 241.226H457.56C457.311 241.218 457.064 241.267 456.836 241.368C456.608 241.47 456.407 241.622 456.246 241.813C455.92 242.204 455.756 242.718 455.756 243.351V245.699C455.756 246.333 455.92 246.846 456.246 247.238C456.407 247.429 456.608 247.581 456.836 247.682C457.064 247.784 457.311 247.833 457.56 247.825H459.041ZM465.579 249.419C465.4 249.426 465.221 249.398 465.053 249.335C464.885 249.272 464.732 249.177 464.601 249.054C464.475 248.932 464.376 248.784 464.31 248.62C464.245 248.456 464.215 248.281 464.222 248.105V239.634H469.087C469.972 239.634 470.681 239.842 471.212 240.262C471.753 240.682 472.024 241.246 472.024 241.953V242.653C472.022 242.962 471.94 243.265 471.785 243.533C471.635 243.814 471.413 244.05 471.142 244.218V244.233C471.589 244.391 471.948 244.647 472.219 245.001C472.498 245.355 472.638 245.751 472.638 246.189V246.916C472.638 247.679 472.358 248.29 471.799 248.747C471.25 249.194 470.503 249.419 469.563 249.419H465.579ZM469.087 243.687C469.221 243.692 469.354 243.67 469.479 243.622C469.604 243.574 469.718 243.501 469.814 243.407C469.909 243.303 469.982 243.182 470.03 243.051C470.078 242.919 470.1 242.779 470.094 242.639V242.163C470.098 242.044 470.074 241.926 470.022 241.819C469.971 241.712 469.895 241.618 469.8 241.547C469.574 241.38 469.297 241.296 469.017 241.31H466.152V243.687H469.087ZM469.423 247.74C469.834 247.74 470.15 247.661 470.374 247.503C470.483 247.423 470.57 247.317 470.629 247.195C470.687 247.073 470.715 246.938 470.71 246.803V246.189C470.714 246.065 470.689 245.941 470.638 245.827C470.587 245.713 470.511 245.612 470.415 245.532C470.194 245.355 469.916 245.266 469.633 245.281H466.152V247.74H469.423ZM475.23 249.419C474.821 249.419 474.488 249.302 474.237 249.069C474.115 248.943 474.02 248.794 473.958 248.63C473.895 248.467 473.867 248.292 473.875 248.117V239.634H475.802V247.74H481.116V249.419H475.23ZM483.448 249.419C483.269 249.426 483.09 249.397 482.922 249.335C482.754 249.272 482.6 249.177 482.47 249.054C482.344 248.931 482.245 248.783 482.18 248.62C482.115 248.456 482.086 248.281 482.093 248.105V239.634H489.557V241.31H484.021V243.576H489.138V245.252H484.021V247.74H489.557V249.419H483.448ZM490.871 239.634H492.589L495.791 245.448L498.922 239.634H500.642V249.419H498.755V243.226L496.7 246.943C496.594 247.153 496.446 247.339 496.265 247.489C496.124 247.593 495.952 247.647 495.777 247.643H495.245L492.757 243.226V249.419H490.871V239.634ZM508.109 247.139H504.447L503.58 249.419H501.568L505.397 239.634H506.264C506.871 239.634 507.28 239.912 507.494 240.472L510.974 249.419H508.962L508.109 247.139ZM504.964 245.518H507.592L506.293 241.996H506.278L504.964 245.518ZM103.93 241.31H100.826V239.634H108.962V241.31H105.86V249.419H103.93V241.31ZM111.36 249.419C111.181 249.426 111.002 249.398 110.833 249.335C110.665 249.273 110.511 249.177 110.38 249.054C110.254 248.931 110.156 248.783 110.091 248.62C110.026 248.456 109.996 248.281 110.003 248.105V239.634H117.467V241.31H111.933V243.576H117.049V245.252H111.933V247.74H117.469V249.419H111.36ZM122.152 249.53C121.416 249.53 120.763 249.376 120.196 249.069C119.645 248.76 119.191 248.305 118.882 247.755C118.565 247.147 118.406 246.469 118.42 245.784V243.267C118.42 242.522 118.573 241.87 118.882 241.31C119.198 240.741 119.636 240.303 120.196 239.996C120.763 239.68 121.416 239.52 122.152 239.52H123.633C124.369 239.52 125.017 239.68 125.577 239.996C126.145 240.303 126.583 240.741 126.891 241.31C127.207 241.87 127.365 242.522 127.365 243.267V245.784C127.365 246.529 127.207 247.186 126.891 247.755C126.588 248.309 126.132 248.765 125.577 249.069C124.979 249.386 124.31 249.544 123.633 249.53H122.152ZM123.633 247.825C123.88 247.833 124.126 247.785 124.352 247.683C124.577 247.581 124.776 247.429 124.933 247.238C125.269 246.846 125.436 246.333 125.436 245.699V243.351C125.436 242.718 125.269 242.204 124.933 241.813C124.776 241.622 124.577 241.469 124.352 241.367C124.126 241.265 123.88 241.217 123.633 241.226H122.152C121.903 241.218 121.655 241.267 121.428 241.368C121.2 241.47 120.999 241.622 120.838 241.813C120.512 242.204 120.348 242.718 120.348 243.351V245.699C120.348 246.333 120.512 246.846 120.838 247.238C121.174 247.629 121.61 247.825 122.152 247.825H123.633ZM128.814 239.634H134.014C134.864 239.634 135.544 239.862 136.056 240.317C136.576 240.775 136.838 241.375 136.838 242.122V243.1C136.838 243.585 136.698 244.008 136.42 244.371C136.151 244.726 135.752 244.996 135.232 245.182V245.211C135.53 245.407 135.752 245.629 135.903 245.881C136.061 246.134 136.214 246.482 136.364 246.931L137.147 249.419H135.147L134.406 247.098C134.286 246.697 134.119 246.399 133.903 246.204C133.685 246.006 133.4 245.901 133.106 245.909H130.744V249.419H128.814V239.634ZM133.652 244.245C134.043 244.245 134.352 244.143 134.575 243.938C134.685 243.832 134.772 243.704 134.83 243.562C134.888 243.42 134.915 243.268 134.91 243.114V242.204C134.916 242.085 134.897 241.967 134.853 241.856C134.81 241.745 134.744 241.645 134.659 241.562C134.57 241.476 134.464 241.41 134.349 241.367C134.234 241.324 134.111 241.304 133.988 241.31H130.744V244.245H133.652ZM138.427 239.634H140.358V249.419H138.429L138.427 239.634ZM147.966 247.139H144.304L143.435 249.419H141.425L145.254 239.634H146.121C146.726 239.634 147.137 239.912 147.35 240.472L150.831 249.419H148.817L147.966 247.139ZM144.819 245.518H147.447L146.148 241.996H146.133L144.819 245.518Z" fill="#284260"/>
<path fill-rule="evenodd" clip-rule="evenodd" d="M218.687 118.705C205.613 126.149 201.134 142.643 208.683 155.541C216.229 168.437 232.947 172.857 246.021 165.411L218.687 118.705Z" fill="#C75EEB"/>
<path d="M360.182 65.5837C372.277 65.5837 382.082 55.7788 382.082 43.6832C382.082 31.5877 372.277 21.7827 360.182 21.7827C348.088 21.7827 338.281 31.5877 338.281 43.6832C338.281 55.7788 348.088 65.5837 360.182 65.5837Z" fill="#FAC900"/>
<path fill-rule="evenodd" clip-rule="evenodd" d="M227.384 347.027L207.814 380.576H246.955L227.384 347.027Z" fill="#4EBFE9"/>
<path fill-rule="evenodd" clip-rule="evenodd" d="M566.14 150.389L593.633 117.771H538.648L566.14 150.389Z" fill="#EDE9FF"/>
<mask id="mask0_2028_368" style="mask-type:luminance" maskUnits="userSpaceOnUse" x="43" y="223" width="49" height="43">
<path d="M43.7951 223.079H91.3228V265.015H43.7951V223.079Z" fill="white"/>
</mask>
<g mask="url(#mask0_2028_368)">
<path fill-rule="evenodd" clip-rule="evenodd" d="M79.4391 223.079H55.6771L43.7933 244.048L55.6771 265.017H79.4391L91.3228 244.048L79.4391 223.079Z" fill="#61E061"/>
</g>
<mask id="mask1_2028_368" style="mask-type:luminance" maskUnits="userSpaceOnUse" x="390" y="226" width="35" height="35">
<path d="M390.471 226.807H424.02V260.356H390.471V226.807Z" fill="white"/>
</mask>
<g mask="url(#mask1_2028_368)">
<path d="M424.02 226.807H390.471V260.356H424.02V226.807Z" fill="#F6543B"/>
</g>
<defs>
<filter id="filter0_d_2028_368" x="160.283" y="100.066" width="217.137" height="111.829" filterUnits="userSpaceOnUse" color-interpolation-filters="sRGB">
<feFlood flood-opacity="0" result="BackgroundImageFix"/>
<feColorMatrix in="SourceAlpha" type="matrix" values="0 0 0 0 0 0 0 0 0 0 0 0 0 0 0 0 0 0 127 0" result="hardAlpha"/>
<feOffset dy="12.1153"/>
<feGaussianBlur stdDeviation="9.31849"/>
<feComposite in2="hardAlpha" operator="out"/>
<feColorMatrix type="matrix" values="0 0 0 0 0.8797 0 0 0 0 0.855 0 0 0 0 0.95 0 0 0 0.6 0"/>
<feBlend mode="normal" in2="BackgroundImageFix" result="effect1_dropShadow_2028_368"/>
<feBlend mode="normal" in="SourceGraphic" in2="effect1_dropShadow_2028_368" result="shape"/>
</filter>
<filter id="filter1_d_2028_368" x="293.549" y="0.349653" width="217.137" height="111.83" filterUnits="userSpaceOnUse" color-interpolation-filters="sRGB">
<feFlood flood-opacity="0" result="BackgroundImageFix"/>
<feColorMatrix in="SourceAlpha" type="matrix" values="0 0 0 0 0 0 0 0 0 0 0 0 0 0 0 0 0 0 127 0" result="hardAlpha"/>
<feOffset dy="12.1153"/>
<feGaussianBlur stdDeviation="9.31849"/>
<feComposite in2="hardAlpha" operator="out"/>
<feColorMatrix type="matrix" values="0 0 0 0 0.8797 0 0 0 0 0.855 0 0 0 0 0.95 0 0 0 0.6 0"/>
<feBlend mode="normal" in2="BackgroundImageFix" result="effect1_dropShadow_2028_368"/>
<feBlend mode="normal" in="SourceGraphic" in2="effect1_dropShadow_2028_368" result="shape"/>
</filter>
<filter id="filter2_d_2028_368" x="160.283" y="320.001" width="217.137" height="111.829" filterUnits="userSpaceOnUse" color-interpolation-filters="sRGB">
<feFlood flood-opacity="0" result="BackgroundImageFix"/>
<feColorMatrix in="SourceAlpha" type="matrix" values="0 0 0 0 0 0 0 0 0 0 0 0 0 0 0 0 0 0 127 0" result="hardAlpha"/>
<feOffset dy="12.1153"/>
<feGaussianBlur stdDeviation="9.31849"/>
<feComposite in2="hardAlpha" operator="out"/>
<feColorMatrix type="matrix" values="0 0 0 0 0.8797 0 0 0 0 0.855 0 0 0 0 0.95 0 0 0 0.6 0"/>
<feBlend mode="normal" in2="BackgroundImageFix" result="effect1_dropShadow_2028_368"/>
<feBlend mode="normal" in="SourceGraphic" in2="effect1_dropShadow_2028_368" result="shape"/>
</filter>
<filter id="filter3_d_2028_368" x="342.014" y="199.783" width="217.137" height="111.83" filterUnits="userSpaceOnUse" color-interpolation-filters="sRGB">
<feFlood flood-opacity="0" result="BackgroundImageFix"/>
<feColorMatrix in="SourceAlpha" type="matrix" values="0 0 0 0 0 0 0 0 0 0 0 0 0 0 0 0 0 0 127 0" result="hardAlpha"/>
<feOffset dy="12.1153"/>
<feGaussianBlur stdDeviation="9.31849"/>
<feComposite in2="hardAlpha" operator="out"/>
<feColorMatrix type="matrix" values="0 0 0 0 0.8797 0 0 0 0 0.855 0 0 0 0 0.95 0 0 0 0.6 0"/>
<feBlend mode="normal" in2="BackgroundImageFix" result="effect1_dropShadow_2028_368"/>
<feBlend mode="normal" in="SourceGraphic" in2="effect1_dropShadow_2028_368" result="shape"/>
</filter>
<filter id="filter4_d_2028_368" x="-0.00587273" y="199.783" width="200.362" height="111.83" filterUnits="userSpaceOnUse" color-interpolation-filters="sRGB">
<feFlood flood-opacity="0" result="BackgroundImageFix"/>
<feColorMatrix in="SourceAlpha" type="matrix" values="0 0 0 0 0 0 0 0 0 0 0 0 0 0 0 0 0 0 127 0" result="hardAlpha"/>
<feOffset dy="12.1153"/>
<feGaussianBlur stdDeviation="9.31849"/>
<feComposite in2="hardAlpha" operator="out"/>
<feColorMatrix type="matrix" values="0 0 0 0 0.8797 0 0 0 0 0.855 0 0 0 0 0.95 0 0 0 0.6 0"/>
<feBlend mode="normal" in2="BackgroundImageFix" result="effect1_dropShadow_2028_368"/>
<feBlend mode="normal" in="SourceGraphic" in2="effect1_dropShadow_2028_368" result="shape"/>
</filter>
</defs>
</svg>
