<svg width="321" height="288" viewBox="0 0 321 288" fill="none" xmlns="http://www.w3.org/2000/svg">
<path d="M189.863 102.684L189.863 169.188C189.863 189.329 173.535 205.658 153.393 205.658L147.494 205.658" stroke="#EDE9FF" stroke-width="11.2628" stroke-linecap="square"/>
<path d="M258.514 174.551L258.514 229.792C258.514 253.192 239.544 272.162 216.144 272.162L208.099 272.162" stroke="#EDE9FF" stroke-width="11.2628" stroke-linecap="round"/>
<path d="M258.514 149.88L258.514 67.8225C258.514 44.4224 239.544 25.453 216.144 25.453L159.294 25.453" stroke="#EDE9FF" stroke-width="11.2628" stroke-linecap="square"/>
<path d="M112.096 205.657L95.4697 205.657C75.3279 205.657 58.9997 189.329 58.9997 169.187L58.9997 125.209" stroke="#EDE9FF" stroke-width="11.2628" stroke-linecap="square"/>
<path d="M112.096 25.4529L101.369 25.4529C77.9692 25.4529 58.9997 44.4224 58.9997 67.8224L58.9997 89.2753" stroke="#EDE9FF" stroke-width="11.2628" stroke-linecap="square"/>
<g filter="url(#filter0_d_1_3199)">
<rect x="137.573" y="79.3534" width="103.51" height="42.9058" rx="21.4529" fill="#F5F9FF"/>
<rect x="137.841" y="79.6216" width="102.974" height="42.3695" rx="21.1848" stroke="#E2ECEF" stroke-width="0.536323"/>
</g>
<g filter="url(#filter1_d_1_3199)">
<rect x="206.49" y="156.048" width="103.51" height="42.9058" rx="21.4529" fill="#F5F9FF"/>
<rect x="206.758" y="156.316" width="102.974" height="42.3695" rx="21.1848" stroke="#E2ECEF" stroke-width="0.536323"/>
</g>
<g filter="url(#filter2_d_1_3199)">
<rect x="11" y="79.3534" width="103.51" height="42.9058" rx="21.4529" fill="#F5F9FF"/>
<rect x="11.2682" y="79.6216" width="102.974" height="42.3695" rx="21.1848" stroke="#E2ECEF" stroke-width="0.536323"/>
</g>
<g filter="url(#filter3_d_1_3199)">
<rect x="72.4102" y="183.936" width="103.51" height="42.9058" rx="21.4529" fill="#F5F9FF"/>
<rect x="72.6783" y="184.204" width="102.974" height="42.3695" rx="21.1848" stroke="#E2ECEF" stroke-width="0.536323"/>
</g>
<g filter="url(#filter4_d_1_3199)">
<rect x="85.0137" y="4" width="93.8565" height="42.9058" rx="21.4529" fill="#F5F9FF"/>
<rect x="85.2818" y="4.26816" width="93.3202" height="42.3695" rx="21.1848" stroke="#E2ECEF" stroke-width="0.536323"/>
</g>
<path d="M183.597 103.898C183.184 103.898 182.819 103.81 182.503 103.633C182.192 103.456 181.951 103.206 181.779 102.885C181.607 102.558 181.521 102.182 181.521 101.758V100.278C181.521 99.8545 181.607 99.4817 181.779 99.1599C181.956 98.8328 182.203 98.5807 182.519 98.4037C182.841 98.2267 183.211 98.1382 183.629 98.1382H184.482C184.884 98.1382 185.238 98.224 185.544 98.3957C185.85 98.5673 186.086 98.8086 186.252 99.1197C186.423 99.4254 186.509 99.7821 186.509 100.19H185.415C185.415 99.8679 185.329 99.6104 185.158 99.4174C184.986 99.2189 184.761 99.1197 184.482 99.1197H183.629C183.329 99.1197 183.088 99.2323 182.905 99.4576C182.723 99.6775 182.632 99.9671 182.632 100.326V101.71C182.632 102.069 182.72 102.362 182.897 102.587C183.074 102.807 183.307 102.917 183.597 102.917H184.466C184.75 102.917 184.981 102.807 185.158 102.587C185.34 102.367 185.431 102.078 185.431 101.718H186.525C186.525 102.153 186.44 102.536 186.268 102.869C186.096 103.196 185.855 103.451 185.544 103.633C185.233 103.81 184.873 103.898 184.466 103.898H183.597ZM189.208 103.898C188.784 103.898 188.409 103.81 188.082 103.633C187.76 103.451 187.508 103.198 187.326 102.877C187.149 102.549 187.06 102.171 187.06 101.742V100.294C187.06 99.8652 187.149 99.4898 187.326 99.168C187.508 98.8408 187.76 98.5887 188.082 98.4118C188.409 98.2294 188.784 98.1382 189.208 98.1382H190.061C190.485 98.1382 190.857 98.2294 191.179 98.4118C191.506 98.5887 191.758 98.8408 191.935 99.168C192.118 99.4898 192.209 99.8652 192.209 100.294V101.742C192.209 102.171 192.118 102.549 191.935 102.877C191.758 103.198 191.506 103.451 191.179 103.633C190.857 103.81 190.485 103.898 190.061 103.898H189.208ZM190.061 102.917C190.372 102.917 190.621 102.804 190.809 102.579C191.002 102.354 191.099 102.059 191.099 101.694V100.343C191.099 99.9778 191.002 99.6828 190.809 99.4576C190.621 99.2323 190.372 99.1197 190.061 99.1197H189.208C188.897 99.1197 188.645 99.2323 188.452 99.4576C188.264 99.6828 188.17 99.9778 188.17 100.343V101.694C188.17 102.059 188.264 102.354 188.452 102.579C188.645 102.804 188.897 102.917 189.208 102.917H190.061ZM193.043 98.2026L194.032 98.2026L196.735 102.032V98.2026H197.821L197.821 103.834H196.832L194.129 100.005V103.834H193.043V98.2026ZM200.201 99.168H198.415V98.2026L203.097 98.2026V99.168L201.311 99.168L201.311 103.834H200.201V99.168ZM204.476 103.834C204.245 103.834 204.058 103.764 203.913 103.625C203.768 103.485 203.696 103.303 203.696 103.078V98.2026H207.992V99.168H204.806V100.471H207.75V101.437H204.806V102.869H207.992L207.992 103.834H204.476ZM210.195 100.962L208.313 98.2026H209.576L210.831 100.053L212.086 98.2026H213.341L211.458 100.962L213.421 103.834H212.158L210.831 101.871L209.495 103.834L208.232 103.834L210.195 100.962ZM215.285 99.168H213.499V98.2026H218.181V99.168H216.395L216.395 103.834H215.285V99.168ZM220.508 103.898C220.084 103.898 219.708 103.81 219.381 103.633C219.06 103.451 218.807 103.198 218.625 102.877C218.448 102.549 218.36 102.171 218.36 101.742V100.294C218.36 99.8652 218.448 99.4898 218.625 99.168C218.807 98.8408 219.06 98.5887 219.381 98.4118C219.708 98.2294 220.084 98.1382 220.508 98.1382H221.36C221.784 98.1382 222.157 98.2294 222.479 98.4118C222.806 98.5887 223.058 98.8408 223.235 99.168C223.417 99.4898 223.508 99.8652 223.508 100.294V101.742C223.508 102.171 223.417 102.549 223.235 102.877C223.058 103.198 222.806 103.451 222.479 103.633C222.157 103.81 221.784 103.898 221.36 103.898L220.508 103.898ZM221.36 102.917C221.671 102.917 221.921 102.804 222.109 102.579C222.302 102.354 222.398 102.059 222.398 101.694V100.343C222.398 99.9778 222.302 99.6828 222.109 99.4576C221.921 99.2323 221.671 99.1197 221.36 99.1197H220.508C220.197 99.1197 219.944 99.2323 219.751 99.4576C219.564 99.6828 219.47 99.9778 219.47 100.343V101.694C219.47 102.059 219.564 102.354 219.751 102.579C219.944 102.804 220.197 102.917 220.508 102.917H221.36Z" fill="#1E7291"/>
<path d="M254.66 180.057C254.247 180.057 253.882 179.968 253.566 179.791C253.255 179.614 253.014 179.365 252.842 179.043C252.67 178.716 252.584 178.34 252.584 177.917V176.436C252.584 176.013 252.67 175.64 252.842 175.318C253.019 174.991 253.266 174.739 253.582 174.562C253.904 174.385 254.274 174.296 254.692 174.296H255.545C255.947 174.296 256.301 174.382 256.607 174.554C256.913 174.725 257.149 174.967 257.315 175.278C257.486 175.584 257.572 175.94 257.572 176.348H256.478C256.478 176.026 256.392 175.769 256.221 175.576C256.049 175.377 255.824 175.278 255.545 175.278H254.692C254.392 175.278 254.151 175.391 253.968 175.616C253.786 175.836 253.695 176.125 253.695 176.485V177.868C253.695 178.228 253.783 178.52 253.96 178.745C254.137 178.965 254.37 179.075 254.66 179.075H255.529C255.813 179.075 256.044 178.965 256.221 178.745C256.403 178.525 256.494 178.236 256.494 177.876H257.588C257.588 178.311 257.503 178.694 257.331 179.027C257.159 179.354 256.918 179.609 256.607 179.791C256.296 179.968 255.936 180.057 255.529 180.057H254.66ZM260.271 180.057C259.847 180.057 259.472 179.968 259.145 179.791C258.823 179.609 258.571 179.357 258.389 179.035C258.212 178.708 258.123 178.33 258.123 177.901V176.452C258.123 176.023 258.212 175.648 258.389 175.326C258.571 174.999 258.823 174.747 259.145 174.57C259.472 174.388 259.847 174.296 260.271 174.296L261.124 174.296C261.548 174.296 261.92 174.388 262.242 174.57C262.569 174.747 262.821 174.999 262.998 175.326C263.181 175.648 263.272 176.023 263.272 176.452V177.901C263.272 178.33 263.181 178.708 262.998 179.035C262.821 179.357 262.569 179.609 262.242 179.791C261.92 179.968 261.548 180.057 261.124 180.057H260.271ZM261.124 179.075C261.435 179.075 261.684 178.962 261.872 178.737C262.065 178.512 262.162 178.217 262.162 177.852V176.501C262.162 176.136 262.065 175.841 261.872 175.616C261.684 175.391 261.435 175.278 261.124 175.278L260.271 175.278C259.96 175.278 259.708 175.391 259.515 175.616C259.327 175.841 259.233 176.136 259.233 176.501V177.852C259.233 178.217 259.327 178.512 259.515 178.737C259.708 178.962 259.96 179.075 260.271 179.075H261.124ZM264.106 174.361H265.095L267.798 178.19V174.361H268.884V179.992H267.895L265.192 176.163V179.992H264.106V174.361ZM271.264 175.326H269.478V174.361H274.16V175.326H272.374V179.992H271.264V175.326ZM275.539 179.992C275.308 179.992 275.121 179.922 274.976 179.783C274.831 179.644 274.759 179.461 274.759 179.236V174.361L279.055 174.361V175.326L275.869 175.326V176.629L278.813 176.629V177.595L275.869 177.595V179.027L279.055 179.027V179.992L275.539 179.992ZM281.258 177.12L279.376 174.361H280.639L281.894 176.211L283.149 174.361H284.404L282.521 177.12L284.484 179.992H283.221L281.894 178.029L280.558 179.992H279.295L281.258 177.12ZM286.348 175.326H284.562V174.361H289.244V175.326H287.458V179.992H286.348V175.326ZM291.571 180.057C291.147 180.057 290.771 179.968 290.444 179.791C290.123 179.609 289.87 179.357 289.688 179.035C289.511 178.708 289.423 178.33 289.423 177.901V176.452C289.423 176.023 289.511 175.648 289.688 175.326C289.87 174.999 290.123 174.747 290.444 174.57C290.771 174.388 291.147 174.296 291.571 174.296H292.423C292.847 174.296 293.22 174.388 293.542 174.57C293.869 174.747 294.121 174.999 294.298 175.326C294.48 175.648 294.571 176.023 294.571 176.452V177.901C294.571 178.33 294.48 178.708 294.298 179.035C294.121 179.357 293.869 179.609 293.542 179.791C293.22 179.968 292.847 180.057 292.423 180.057H291.571ZM292.423 179.075C292.734 179.075 292.984 178.962 293.172 178.737C293.365 178.512 293.461 178.217 293.461 177.852V176.501C293.461 176.136 293.365 175.841 293.172 175.616C292.984 175.391 292.734 175.278 292.423 175.278H291.571C291.26 175.278 291.007 175.391 290.814 175.616C290.627 175.841 290.533 176.136 290.533 176.501V177.852C290.533 178.217 290.627 178.512 290.814 178.737C291.007 178.962 291.26 179.075 291.571 179.075H292.423Z" fill="#1E7291"/>
<path d="M58.8051 103.898C58.2152 103.898 57.7539 103.735 57.4214 103.408C57.0889 103.075 56.9226 102.614 56.9226 102.024H58.0167C58.0167 102.303 58.0864 102.523 58.2259 102.684C58.3707 102.839 58.5691 102.917 58.8212 102.917H59.7142C59.9502 102.917 60.1406 102.869 60.2854 102.772C60.4355 102.67 60.5106 102.536 60.5106 102.37V102.096C60.5106 101.834 60.3175 101.67 59.9314 101.606L58.4511 101.356C57.9685 101.276 57.6011 101.123 57.349 100.898C57.1023 100.667 56.9789 100.375 56.9789 100.021V99.5702C56.9789 99.286 57.054 99.0366 57.2042 98.822C57.3597 98.6022 57.5769 98.4332 57.8558 98.3152C58.1401 98.1972 58.4672 98.1382 58.8373 98.1382H59.7464C60.095 98.1382 60.4034 98.2106 60.6715 98.3554C60.9397 98.5003 61.1462 98.7041 61.291 98.9669C61.4411 99.2243 61.5162 99.5246 61.5162 99.8679L60.4221 99.8679C60.4221 99.6426 60.3605 99.463 60.2371 99.3289C60.1137 99.1894 59.9502 99.1197 59.7464 99.1197H58.8373C58.612 99.1197 58.4297 99.168 58.2902 99.2645C58.1562 99.3611 58.0891 99.4898 58.0891 99.6507V99.8679C58.0891 100.136 58.2742 100.302 58.6442 100.367L60.1164 100.624C60.6045 100.71 60.9772 100.863 61.2347 101.083C61.4921 101.297 61.6208 101.576 61.6208 101.919V102.45C61.6208 102.735 61.5404 102.987 61.3795 103.206C61.2239 103.426 61.004 103.598 60.7198 103.721C60.4355 103.839 60.1057 103.898 59.7303 103.898H58.8051ZM64.3822 103.898C63.9585 103.898 63.5831 103.81 63.2559 103.633C62.9341 103.451 62.6821 103.198 62.4997 102.877C62.3227 102.549 62.2342 102.171 62.2342 101.742L62.2342 100.294C62.2342 99.8652 62.3227 99.4898 62.4997 99.168C62.6821 98.8408 62.9341 98.5887 63.2559 98.4118C63.5831 98.2294 63.9585 98.1382 64.3822 98.1382H65.235C65.6587 98.1382 66.0314 98.2294 66.3532 98.4118C66.6803 98.5887 66.9324 98.8408 67.1094 99.168C67.2918 99.4898 67.3829 99.8652 67.3829 100.294V101.742C67.3829 102.171 67.2918 102.549 67.1094 102.877C66.9324 103.198 66.6803 103.451 66.3532 103.633C66.0314 103.81 65.6587 103.898 65.235 103.898H64.3822ZM65.235 102.917C65.546 102.917 65.7954 102.804 65.9831 102.579C66.1762 102.354 66.2727 102.059 66.2727 101.694V100.343C66.2727 99.9778 66.1762 99.6828 65.9831 99.4576C65.7954 99.2323 65.546 99.1197 65.235 99.1197H64.3822C64.0711 99.1197 63.8191 99.2323 63.626 99.4576C63.4383 99.6828 63.3444 99.9778 63.3444 100.343V101.694C63.3444 102.059 63.4383 102.354 63.626 102.579C63.8191 102.804 64.0711 102.917 64.3822 102.917H65.235ZM68.997 103.834C68.761 103.834 68.5706 103.767 68.4258 103.633C68.2864 103.493 68.2166 103.311 68.2166 103.086L68.2166 98.2026L69.3268 98.2026V102.869H72.3839V103.834H68.997ZM74.7284 103.898C74.3315 103.898 73.9829 103.815 73.6825 103.649C73.3822 103.477 73.1489 103.239 72.9826 102.933C72.8164 102.627 72.7333 102.273 72.7333 101.871V98.2026H73.8434L73.8434 101.839C73.8434 102.161 73.9239 102.421 74.0848 102.619C74.251 102.818 74.4656 102.917 74.7284 102.917H75.5811C75.8493 102.917 76.0665 102.818 76.2328 102.619C76.399 102.421 76.4822 102.161 76.4822 101.839L76.4822 98.2026L77.5923 98.2026L77.5923 101.871C77.5923 102.273 77.5092 102.627 77.3429 102.933C77.1767 103.239 76.9407 103.477 76.635 103.649C76.3293 103.815 75.978 103.898 75.5811 103.898H74.7284ZM81.2827 103.898L81.146 104.204H81.2264C81.4409 104.204 81.6126 104.266 81.7413 104.389C81.87 104.512 81.9344 104.673 81.9344 104.872V105.033C81.9344 105.279 81.8378 105.475 81.6447 105.62C81.4517 105.77 81.1969 105.845 80.8805 105.845H80.1001L80.1001 105.186H80.792C80.8885 105.186 80.9663 105.167 81.0253 105.129C81.0843 105.097 81.1138 105.054 81.1138 105V104.88C81.1138 104.832 81.0896 104.791 81.0414 104.759C80.9931 104.732 80.9287 104.719 80.8483 104.719H80.3173V104.301L80.4863 103.898H80.4702C80.0572 103.898 79.6925 103.81 79.3761 103.633C79.065 103.456 78.8237 103.206 78.6521 102.885C78.4804 102.558 78.3946 102.182 78.3946 101.758L78.3946 100.278C78.3946 99.8545 78.4804 99.4817 78.6521 99.1599C78.829 98.8328 79.0758 98.5807 79.3922 98.4037C79.714 98.2267 80.084 98.1382 80.5024 98.1382H81.3551C81.7574 98.1382 82.1113 98.224 82.417 98.3957C82.7227 98.5673 82.9587 98.8086 83.125 99.1197C83.2966 99.4254 83.3824 99.7821 83.3824 100.19H82.2883C82.2883 99.8679 82.2025 99.6104 82.0309 99.4174C81.8593 99.2189 81.634 99.1197 81.3551 99.1197H80.5024C80.202 99.1197 79.9607 99.2323 79.7783 99.4576C79.596 99.6775 79.5048 99.9671 79.5048 100.326V101.71C79.5048 102.069 79.5933 102.362 79.7703 102.587C79.9473 102.807 80.1806 102.917 80.4702 102.917H81.339C81.6233 102.917 81.8539 102.807 82.0309 102.587C82.2132 102.367 82.3044 102.078 82.3044 101.718H83.3985C83.3985 102.153 83.3127 102.536 83.1411 102.869C82.9695 103.196 82.7281 103.451 82.417 103.633C82.106 103.81 81.7466 103.898 81.339 103.898H81.2827ZM87.2355 102.523L85.1277 102.523L84.6289 103.834H83.4705L85.6748 98.2026H86.1735C86.5222 98.2026 86.7581 98.3635 86.8815 98.6853L88.8847 103.834H87.7262L87.2355 102.523ZM85.4254 101.589H86.9378L86.1896 99.5622H86.1816L85.4254 101.589ZM86.6965 97.7119C86.5731 97.7119 86.4632 97.685 86.3666 97.6314C86.2701 97.5778 86.1655 97.5027 86.0529 97.4062C85.9188 97.2828 85.8142 97.2211 85.7391 97.2211H85.6909C85.6211 97.2211 85.5648 97.2613 85.5219 97.3418C85.479 97.4169 85.4576 97.5188 85.4576 97.6475L84.6611 97.6475C84.6558 97.2882 84.7416 96.9985 84.9186 96.7787C85.0955 96.5588 85.3342 96.4488 85.6345 96.4488H85.6828C85.8115 96.4488 85.9242 96.4783 86.0207 96.5373C86.1172 96.5909 86.2299 96.6687 86.3586 96.7706C86.4819 96.8832 86.5731 96.9396 86.6321 96.9396H86.6804C86.7447 96.9396 86.7957 96.902 86.8332 96.8269C86.8761 96.7465 86.8976 96.6419 86.8976 96.5132H87.694C87.694 96.8725 87.6082 97.1621 87.4366 97.382C87.265 97.6019 87.0343 97.7119 86.7447 97.7119H86.6965ZM91.2193 103.898C90.7956 103.898 90.4202 103.81 90.093 103.633C89.7712 103.451 89.5192 103.198 89.3368 102.877C89.1598 102.549 89.0713 102.171 89.0713 101.742V100.294C89.0713 99.8652 89.1598 99.4898 89.3368 99.168C89.5192 98.8408 89.7712 98.5887 90.093 98.4118C90.4202 98.2294 90.7956 98.1382 91.2193 98.1382H92.0721C92.4957 98.1382 92.8685 98.2294 93.1903 98.4118C93.5174 98.5887 93.7695 98.8408 93.9465 99.168C94.1288 99.4898 94.22 99.8652 94.22 100.294V101.742C94.22 102.171 94.1288 102.549 93.9465 102.877C93.7695 103.198 93.5174 103.451 93.1903 103.633C92.8685 103.81 92.4957 103.898 92.0721 103.898H91.2193ZM92.0721 102.917C92.3831 102.917 92.6325 102.804 92.8202 102.579C93.0133 102.354 93.1098 102.059 93.1098 101.694V100.343C93.1098 99.9778 93.0133 99.6828 92.8202 99.4576C92.6325 99.2323 92.3831 99.1197 92.0721 99.1197H91.2193C90.9082 99.1197 90.6562 99.2323 90.4631 99.4576C90.2754 99.6828 90.1815 99.9778 90.1815 100.343V101.694C90.1815 102.059 90.2754 102.354 90.4631 102.579C90.6562 102.804 90.9082 102.917 91.2193 102.917H92.0721Z" fill="#1E7291"/>
<path d="M115.314 202.786H118.282C118.61 202.786 118.899 202.85 119.151 202.979C119.403 203.102 119.599 203.282 119.739 203.518C119.878 203.748 119.948 204.014 119.948 204.314V205.062C119.948 205.373 119.875 205.65 119.73 205.891C119.586 206.127 119.382 206.312 119.119 206.446C118.862 206.575 118.561 206.639 118.218 206.639H116.424V208.417H115.314L115.314 202.786ZM118.202 205.674C118.39 205.674 118.543 205.615 118.661 205.497C118.779 205.373 118.838 205.212 118.838 205.014V204.362C118.838 204.175 118.784 204.027 118.677 203.92C118.575 203.807 118.438 203.751 118.266 203.751H116.424V205.674H118.202ZM120.562 202.786L123.555 202.786C124.043 202.786 124.434 202.917 124.729 203.18C125.029 203.443 125.18 203.789 125.18 204.218V204.781C125.18 205.06 125.099 205.304 124.938 205.513C124.783 205.717 124.555 205.872 124.254 205.979V205.995C124.426 206.108 124.555 206.237 124.641 206.382C124.732 206.526 124.82 206.728 124.906 206.985L125.357 208.417H124.206L123.78 207.082C123.71 206.851 123.614 206.679 123.49 206.567C123.367 206.454 123.214 206.398 123.032 206.398L121.672 206.398V208.417H120.562L120.562 202.786ZM123.345 205.44C123.571 205.44 123.748 205.381 123.876 205.263C124.005 205.14 124.069 204.982 124.069 204.789V204.266C124.069 204.11 124.021 203.987 123.925 203.896C123.828 203.799 123.699 203.751 123.538 203.751L121.672 203.751V205.44L123.345 205.44ZM127.97 208.481C127.546 208.481 127.171 208.393 126.844 208.216C126.522 208.034 126.27 207.781 126.087 207.46C125.91 207.132 125.822 206.754 125.822 206.325L125.822 204.877C125.822 204.448 125.91 204.073 126.087 203.751C126.27 203.424 126.522 203.172 126.844 202.995C127.171 202.812 127.546 202.721 127.97 202.721H128.823C129.246 202.721 129.619 202.812 129.941 202.995C130.268 203.172 130.52 203.424 130.697 203.751C130.879 204.073 130.971 204.448 130.971 204.877V206.325C130.971 206.754 130.879 207.132 130.697 207.46C130.52 207.781 130.268 208.034 129.941 208.216C129.619 208.393 129.246 208.481 128.823 208.481H127.97ZM128.823 207.5C129.134 207.5 129.383 207.387 129.571 207.162C129.764 206.937 129.86 206.642 129.86 206.277V204.926C129.86 204.561 129.764 204.266 129.571 204.041C129.383 203.815 129.134 203.703 128.823 203.703H127.97C127.659 203.703 127.407 203.815 127.214 204.041C127.026 204.266 126.932 204.561 126.932 204.926V206.277C126.932 206.642 127.026 206.937 127.214 207.162C127.407 207.387 127.659 207.5 127.97 207.5H128.823ZM132.585 208.417C132.354 208.417 132.166 208.347 132.021 208.208C131.877 208.068 131.804 207.886 131.804 207.661V202.786H134.604C135.113 202.786 135.521 202.906 135.827 203.148C136.138 203.389 136.293 203.713 136.293 204.121V204.523C136.293 204.7 136.248 204.869 136.156 205.03C136.071 205.191 135.947 205.322 135.786 205.424V205.432C136.044 205.524 136.25 205.671 136.406 205.875C136.567 206.079 136.647 206.307 136.647 206.559V206.977C136.647 207.417 136.486 207.768 136.165 208.031C135.848 208.288 135.419 208.417 134.877 208.417H132.585ZM134.604 205.119C134.775 205.119 134.915 205.065 135.022 204.958C135.129 204.845 135.183 204.698 135.183 204.515V204.242C135.183 204.092 135.127 203.974 135.014 203.888C134.901 203.797 134.751 203.751 134.564 203.751H132.914V205.119H134.604ZM134.797 207.452C135.033 207.452 135.215 207.406 135.344 207.315C135.473 207.218 135.537 207.084 135.537 206.913V206.559C135.537 206.403 135.481 206.277 135.368 206.181C135.255 206.084 135.105 206.036 134.918 206.036H132.914V207.452H134.797ZM138.139 208.417C137.903 208.417 137.713 208.35 137.568 208.216C137.428 208.076 137.359 207.894 137.359 207.669V202.786H138.469V207.452L141.526 207.452L141.526 208.417L138.139 208.417ZM142.868 208.417C142.638 208.417 142.45 208.347 142.305 208.208C142.161 208.068 142.088 207.886 142.088 207.661V202.786H146.384V203.751H143.198V205.054H146.143V206.02H143.198V207.452H146.384L146.384 208.417H142.868ZM147.14 202.786H148.129L149.971 206.132L151.774 202.786H152.763V208.417H151.677V204.853L150.494 206.993C150.414 207.138 150.331 207.242 150.245 207.307C150.165 207.366 150.071 207.395 149.963 207.395H149.658L148.226 204.853V208.417H147.14V202.786ZM157.061 207.106H154.953L154.454 208.417H153.296L155.5 202.786H155.999C156.348 202.786 156.584 202.946 156.707 203.268L158.71 208.417H157.552L157.061 207.106ZM155.251 206.172L156.763 206.172L156.015 204.145H156.007L155.251 206.172Z" fill="#1E7291"/>
<path d="M134.14 23.8147L132.354 23.8147V22.8493L137.036 22.8493V23.8147H135.25L135.25 28.4807L134.14 28.4807V23.8147ZM138.415 28.4807C138.185 28.4807 137.997 28.411 137.852 28.2715C137.707 28.1321 137.635 27.9498 137.635 27.7245V22.8493L141.931 22.8493V23.8147L138.745 23.8147V25.118L141.689 25.118V26.0833L138.745 26.0833V27.5153L141.931 27.5153V28.4807L138.415 28.4807ZM144.626 28.5451C144.203 28.5451 143.827 28.4566 143.5 28.2796C143.178 28.0972 142.926 27.8452 142.744 27.5234C142.567 27.1962 142.478 26.8181 142.478 26.3891V24.941C142.478 24.5119 142.567 24.1365 142.744 23.8147C142.926 23.4875 143.178 23.2355 143.5 23.0585C143.827 22.8761 144.203 22.785 144.626 22.785H145.479C145.903 22.785 146.276 22.8761 146.597 23.0585C146.925 23.2355 147.177 23.4875 147.354 23.8147C147.536 24.1365 147.627 24.5119 147.627 24.941V26.3891C147.627 26.8181 147.536 27.1962 147.354 27.5234C147.177 27.8452 146.925 28.0972 146.597 28.2796C146.276 28.4566 145.903 28.5451 145.479 28.5451L144.626 28.5451ZM145.479 27.5636C145.79 27.5636 146.04 27.451 146.227 27.2257C146.42 27.0005 146.517 26.7055 146.517 26.3408V24.9893C146.517 24.6246 146.42 24.3296 146.227 24.1043C146.04 23.8791 145.79 23.7664 145.479 23.7664H144.626C144.315 23.7664 144.063 23.8791 143.87 24.1043C143.682 24.3296 143.589 24.6246 143.589 24.9893V26.3408C143.589 26.7055 143.682 27.0005 143.87 27.2257C144.063 27.451 144.315 27.5636 144.626 27.5636H145.479ZM148.461 22.8493L151.454 22.8493C151.942 22.8493 152.333 22.9807 152.628 23.2435C152.928 23.5063 153.079 23.8522 153.079 24.2813V24.8444C153.079 25.1233 152.998 25.3674 152.837 25.5765C152.682 25.7803 152.454 25.9359 152.153 26.0431V26.0592C152.325 26.1718 152.454 26.3006 152.54 26.4454C152.631 26.5902 152.719 26.7913 152.805 27.0487L153.256 28.4807H152.105L151.679 27.1453C151.609 26.9147 151.513 26.743 151.389 26.6304C151.266 26.5178 151.113 26.4615 150.931 26.4615L149.571 26.4615V28.4807H148.461V22.8493ZM151.244 25.5041C151.47 25.5041 151.647 25.4451 151.775 25.3271C151.904 25.2038 151.968 25.0456 151.968 24.8525V24.3296C151.968 24.174 151.92 24.0507 151.824 23.9595C151.727 23.863 151.598 23.8147 151.437 23.8147L149.571 23.8147V25.5041L151.244 25.5041ZM153.994 22.8493L155.104 22.8493L155.104 28.4807L153.994 28.4807L153.994 22.8493ZM159.482 27.1694L157.374 27.1694L156.875 28.4807H155.717L157.921 22.8493L158.42 22.8493C158.769 22.8493 159.005 23.0102 159.128 23.332L161.131 28.4807H159.973L159.482 27.1694ZM157.672 26.2362L159.184 26.2362L158.436 24.2089H158.428L157.672 26.2362Z" fill="#1E7291"/>
<path fill-rule="evenodd" clip-rule="evenodd" d="M160.461 86.3257C152.938 90.6109 150.36 100.102 154.704 107.525C159.048 114.947 168.668 117.491 176.192 113.206L160.461 86.3257Z" fill="#C75EEB"/>
<path d="M234.111 189.836C241.072 189.836 246.715 184.193 246.715 177.232C246.715 170.272 241.072 164.629 234.111 164.629C227.151 164.629 221.508 170.272 221.508 177.232C221.508 184.193 227.151 189.836 234.111 189.836Z" fill="#FAC900"/>
<path fill-rule="evenodd" clip-rule="evenodd" d="M38.8875 91.1526L27.625 110.46L50.1506 110.46L38.8875 91.1526Z" fill="#4EBFE9"/>
<path fill-rule="evenodd" clip-rule="evenodd" d="M185.57 271.894L204.342 287.715L204.342 256.072L185.57 271.894Z" fill="#EDE9FF"/>
<g clip-path="url(#clip0_1_3199)">
<path fill-rule="evenodd" clip-rule="evenodd" d="M120.006 13.6534L106.33 13.6534L99.4919 25.721L106.33 37.788L120.006 37.788L126.844 25.721L120.006 13.6534Z" fill="#61E061"/>
</g>
<g clip-path="url(#clip1_1_3199)">
<path d="M108.878 195.735L89.5703 195.735L89.5703 215.043L108.878 215.043L108.878 195.735Z" fill="#F6543B"/>
</g>
<defs>
<filter id="filter0_d_1_3199" x="126.846" y="75.5991" width="124.963" height="64.3588" filterUnits="userSpaceOnUse" color-interpolation-filters="sRGB">
<feFlood flood-opacity="0" result="BackgroundImageFix"/>
<feColorMatrix in="SourceAlpha" type="matrix" values="0 0 0 0 0 0 0 0 0 0 0 0 0 0 0 0 0 0 127 0" result="hardAlpha"/>
<feOffset dy="6.9722"/>
<feGaussianBlur stdDeviation="5.36323"/>
<feComposite in2="hardAlpha" operator="out"/>
<feColorMatrix type="matrix" values="0 0 0 0 0.8797 0 0 0 0 0.855 0 0 0 0 0.95 0 0 0 0.6 0"/>
<feBlend mode="normal" in2="BackgroundImageFix" result="effect1_dropShadow_1_3199"/>
<feBlend mode="normal" in="SourceGraphic" in2="effect1_dropShadow_1_3199" result="shape"/>
</filter>
<filter id="filter1_d_1_3199" x="195.764" y="152.294" width="124.963" height="64.3588" filterUnits="userSpaceOnUse" color-interpolation-filters="sRGB">
<feFlood flood-opacity="0" result="BackgroundImageFix"/>
<feColorMatrix in="SourceAlpha" type="matrix" values="0 0 0 0 0 0 0 0 0 0 0 0 0 0 0 0 0 0 127 0" result="hardAlpha"/>
<feOffset dy="6.9722"/>
<feGaussianBlur stdDeviation="5.36323"/>
<feComposite in2="hardAlpha" operator="out"/>
<feColorMatrix type="matrix" values="0 0 0 0 0.8797 0 0 0 0 0.855 0 0 0 0 0.95 0 0 0 0.6 0"/>
<feBlend mode="normal" in2="BackgroundImageFix" result="effect1_dropShadow_1_3199"/>
<feBlend mode="normal" in="SourceGraphic" in2="effect1_dropShadow_1_3199" result="shape"/>
</filter>
<filter id="filter2_d_1_3199" x="0.273542" y="75.5991" width="124.963" height="64.3588" filterUnits="userSpaceOnUse" color-interpolation-filters="sRGB">
<feFlood flood-opacity="0" result="BackgroundImageFix"/>
<feColorMatrix in="SourceAlpha" type="matrix" values="0 0 0 0 0 0 0 0 0 0 0 0 0 0 0 0 0 0 127 0" result="hardAlpha"/>
<feOffset dy="6.9722"/>
<feGaussianBlur stdDeviation="5.36323"/>
<feComposite in2="hardAlpha" operator="out"/>
<feColorMatrix type="matrix" values="0 0 0 0 0.8797 0 0 0 0 0.855 0 0 0 0 0.95 0 0 0 0.6 0"/>
<feBlend mode="normal" in2="BackgroundImageFix" result="effect1_dropShadow_1_3199"/>
<feBlend mode="normal" in="SourceGraphic" in2="effect1_dropShadow_1_3199" result="shape"/>
</filter>
<filter id="filter3_d_1_3199" x="61.6837" y="180.182" width="124.963" height="64.3588" filterUnits="userSpaceOnUse" color-interpolation-filters="sRGB">
<feFlood flood-opacity="0" result="BackgroundImageFix"/>
<feColorMatrix in="SourceAlpha" type="matrix" values="0 0 0 0 0 0 0 0 0 0 0 0 0 0 0 0 0 0 127 0" result="hardAlpha"/>
<feOffset dy="6.9722"/>
<feGaussianBlur stdDeviation="5.36323"/>
<feComposite in2="hardAlpha" operator="out"/>
<feColorMatrix type="matrix" values="0 0 0 0 0.8797 0 0 0 0 0.855 0 0 0 0 0.95 0 0 0 0.6 0"/>
<feBlend mode="normal" in2="BackgroundImageFix" result="effect1_dropShadow_1_3199"/>
<feBlend mode="normal" in="SourceGraphic" in2="effect1_dropShadow_1_3199" result="shape"/>
</filter>
<filter id="filter4_d_1_3199" x="74.2872" y="0.24574" width="115.309" height="64.3588" filterUnits="userSpaceOnUse" color-interpolation-filters="sRGB">
<feFlood flood-opacity="0" result="BackgroundImageFix"/>
<feColorMatrix in="SourceAlpha" type="matrix" values="0 0 0 0 0 0 0 0 0 0 0 0 0 0 0 0 0 0 127 0" result="hardAlpha"/>
<feOffset dy="6.9722"/>
<feGaussianBlur stdDeviation="5.36323"/>
<feComposite in2="hardAlpha" operator="out"/>
<feColorMatrix type="matrix" values="0 0 0 0 0.8797 0 0 0 0 0.855 0 0 0 0 0.95 0 0 0 0.6 0"/>
<feBlend mode="normal" in2="BackgroundImageFix" result="effect1_dropShadow_1_3199"/>
<feBlend mode="normal" in="SourceGraphic" in2="effect1_dropShadow_1_3199" result="shape"/>
</filter>
<clipPath id="clip0_1_3199">
<rect width="27.3525" height="24.1345" fill="white" transform="translate(99.4922 13.6538)"/>
</clipPath>
<clipPath id="clip1_1_3199">
<rect width="19.3076" height="19.3076" fill="white" transform="translate(89.5703 195.736)"/>
</clipPath>
</defs>
</svg>
